<?xml version="1.0" encoding="UTF-8" standalone="no"?>
<svg
   xmlns:dc="http://purl.org/dc/elements/1.1/"
   xmlns:cc="http://creativecommons.org/ns#"
   xmlns:rdf="http://www.w3.org/1999/02/22-rdf-syntax-ns#"
   xmlns:svg="http://www.w3.org/2000/svg"
   xmlns="http://www.w3.org/2000/svg"
   xmlns:sodipodi="http://sodipodi.sourceforge.net/DTD/sodipodi-0.dtd"
   xmlns:inkscape="http://www.inkscape.org/namespaces/inkscape"
   version="1.1"
   id="Layer_1"
   x="0px"
   y="0px"
   width="499.99994"
   viewBox="0 0 499.99994 217.30834"
   enable-background="new 0 0 1024 560"
   xml:space="preserve"
   sodipodi:docname="astro_side_off.svg"
   height="217.30833"
   inkscape:version="0.92.5 (2060ec1f9f, 2020-04-08)"><metadata
   id="metadata883"><rdf:RDF><cc:Work
       rdf:about=""><dc:format>image/svg+xml</dc:format><dc:type
         rdf:resource="http://purl.org/dc/dcmitype/StillImage" /><dc:title></dc:title></cc:Work></rdf:RDF></metadata><defs
   id="defs881" /><sodipodi:namedview
   pagecolor="#ffffff"
   bordercolor="#666666"
   borderopacity="1"
   objecttolerance="10"
   gridtolerance="10"
   guidetolerance="10"
   inkscape:pageopacity="0"
   inkscape:pageshadow="2"
   inkscape:window-width="1848"
   inkscape:window-height="1136"
   id="namedview879"
   showgrid="false"
   inkscape:zoom="0.64794922"
   inkscape:cx="255.30606"
   inkscape:cy="-35.774969"
   inkscape:window-x="355"
   inkscape:window-y="1467"
   inkscape:window-maximized="1"
   inkscape:current-layer="Layer_1" />

<path
   d="m 144.94695,164.98128 c 6.46941,-15.91244 12.83562,-31.60493 19.11812,-47.09115 -0.51706,-0.54343 -0.63857,-0.79374 -0.80418,-0.82747 -5.58771,-1.13825 -5.94097,-1.75919 -2.61189,-6.26386 2.54085,-3.43819 2.43619,-7.26635 2.18473,-11.106272 -0.15737,-2.40344 -4.03638,-5.0597 -6.7496,-5.19153 -9.12827,-0.44346 -18.29595,-0.32007 -27.31154,-2.26883 -9.23193,-1.99549 -17.66564,-5.72149 -24.97011,-11.67882 -9.385046,-7.6542 -19.976056,-11.43181 -32.091856,-11.22417 -10.31488,0.17678 -20.62047,1.00633 -30.94621,0.49203 -1.56632,-0.078 -3.00977,-0.15774 -4.47163,-1.13813 -2.23807,-1.50095 -6.08629,-0.37919 -8.51438,2.26659 -1.9223,2.09462 -3.65536,4.36209 -5.49561,6.53316 -0.88889,1.04872 -1.78539,2.20024 -3.41315,1.80748 -1.67377,-0.40385 -1.39052,-1.89179 -1.5738,-3.09045 -0.41372,-2.70591 -0.89308,-5.40602 -1.17804,-8.12605 -0.23415,-2.23509 -0.79244,-5.71148 -2.59128,-7.26496 -4.1628198,-0.10061 -5.9600498,-0.0152 -9.5192198,-0.002 -2.03749,0.008 -3.89349999,0.0785 -3.74116999,-1.78554 0.23247,-2.84467 -0.34443,-5.6043 2.05327999,-8.20592 1.52902,-1.65905 0.68469,-4.74307 0.36652,-7.07647 -0.57823,-4.24058 1.286,-6.66064 4.84313,-8.33989 1.91555,-0.904296 3.2186798,-2.501318 4.7964998,-4.249527 -4.7140898,-3.485154 -8.1297298,1.191092 -11.96818979,1.268043 -0.83573,-1.161615 -0.006,-1.88981 0.46531,-2.638982 C 4.8617542,23.363352 9.2583542,17.158835 11.418104,9.7243577 c 0.68166,-2.346523 6.55106,-4.293558 8.85075,-3.187386 0.43143,0.207509 0.98264,0.668052 1.04037,1.074146 0.7223,5.0793663 3.58411,9.4491873 4.70759,14.3976033 0.52094,2.294511 0.33932,3.919441 -1.96937,5.305979 -2.82965,1.699393 -2.30973,6.264895 0.84293,7.266456 2.29075,0.727752 4.08984,2.135136 5.93416,3.393292 2.24259,1.52987 1.81314,4.35243 1.9751,6.75702 0.0314,0.46595 -0.43068,0.94393 -0.52358,1.44274 -0.83274,4.47111 0.005,5.58832 4.55785,5.67673 5.90382,0.11468 11.89055,-0.51832 17.69806,0.25231 10.10222,1.3405 20.3074,0.72087 30.38425,2.24177 5.9788,0.90237 11.97165,-0.50641 17.967756,-0.70374 9.57889,-0.31526 19.13926,-1.15339 28.7144,-1.63093 18.09708,-0.90255 36.19521,-1.77661 54.26334,-3.16415 3.45886,-0.26563 6.8011,-1.279 10.29528,-1.52931 2.40614,-0.17236 4.05436,-2.75163 6.72468,-3.02878 0.88297,-0.0916 0.77878,-1.63101 0.73847,-2.54837 -0.10028,-2.28326 1.10051,-3.21848 3.19262,-3.43934 4.20915,-0.44439 8.41584,-0.3758 12.62508,-0.0286 1.82866,0.15085 2.73756,0.9177 2.85218,2.97022 0.15413,2.76057 1.73125,3.75266 4.31612,2.63726 1.98293,-0.85565 3.41422,-0.57147 4.83396,0.82017 0.64495,0.63221 1.42372,0.88175 2.30472,0.83643 5.99619,-0.30844 11.99183,-0.62693 17.98824,-0.93138 2.4728,-0.12554 3.82099,-1.21846 3.95073,-3.87556 0.10421,-2.13481 0.21348,-4.219035 2.33133,-5.854456 1.3977,-1.079379 0.70636,-3.366215 0.80752,-5.135845 0.0901,-1.576436 0.32823,-3.147487 0.35793,-4.723613 0.0519,-2.749871 0.10985,-5.400029 3.8261,-5.696316 0.49192,-0.03924 0.88477,-0.542133 0.94648,-1.324681 -1.14095,-1.151426 -2.411,-0.773492 -3.59001,0.0093 -1.67295,1.110698 -2.90321,0.847184 -3.92007,-0.885496 -1.35842,-2.314546 -3.27979,-2.905425 -6.05994,-3.398261 -5.85372,-1.037695 -10.97383,0.342686 -16.29384,2.207126 -4.78772,1.677902 -9.75584,1.283673 -14.66332,0.156275 C 205.04498,12.779203 190.433,10.95503 175.8007,9.2360187 c -15.14969,-1.779793 -30.28296,-3.698902 -45.43103,-5.492782 -4.90929,-0.581374 -9.84298,-0.956131 -14.76467,-1.433931 -1.10387,-0.107162 -2.39372,0.230797 -3.05516,-1.285875 1.04605,-1.50195298 2.66066,-0.93146998 3.9848,-0.84862098 9.77781,0.611737 19.54852,1.33603298 29.32251,2.00962198 11.24348,0.774846 22.48843,1.528284 33.73204,2.301232 17.65515,1.213696 35.30895,2.446895 52.96499,3.647561 4.99148,0.339433 9.9376,0.641283 14.96924,-0.286966 3.46754,-0.639707 7.36073,1.162406 10.42859,-1.976442 0.31984,-0.327232 1.27901,-0.308741 1.81125,-0.106928 7.07591,2.683223 14.56916,1.620809 21.85052,2.371678 4.10187,0.423016 8.33645,1.69366 12.4968,-0.06555 0.38065,-0.160978 1.23799,0.04854 1.45302,0.368682 2.39185,3.5612643 6.24777,3.1612883 9.69051,3.4314653 13.01565,1.021426 26.05046,1.79488 39.07318,2.729963 13.22943,0.949949 26.45118,2.007198 39.67984,2.968265 10.08252,0.732524 20.1731,1.35429 30.25542,2.089117 7.5596,0.550979 15.11207,1.199964 22.66683,1.816269 0.71433,0.05828 1.50005,-0.0071 2.09446,0.957245 -0.26225,2.21172 -1.90163,2.93139 -3.93426,2.950122 -2.31351,0.02133 -4.62896,-0.252053 -6.94353,-0.25099 -24.57126,0.01126 -49.1434,-0.05607 -73.71327,0.145752 -7.98899,0.06562 -16.00271,0.674265 -23.90422,1.91909 -5.91695,0.932178 -11.05531,-0.390705 -15.79432,-3.821227 -4.45123,-3.222223 -9.2767,-5.289482 -14.88469,-5.531226 -1.56243,-0.06736 -2.8745,0.192858 -3.60782,1.280559 -1.48457,2.201892 -3.09035,2.64783 -5.47524,0.937558 3.18114,4.199313 1.10531,8.55966 0.78886,12.634864 -0.27219,3.504999 2.39,5.696313 2.59104,8.841483 0.0647,1.01192 1.56348,0.84938 2.48312,0.79789 13.25192,-0.74185 26.50198,-1.51634 39.75351,-2.26552 2.37204,-0.1341 4.76026,-0.40297 7.11245,0.047 0.23159,2.62576 -1.52022,2.90148 -3.03542,3.08067 -10.03546,1.18688 -20.08113,2.28846 -30.12382,3.41408 -2.27069,0.25449 -4.57486,0.34223 -6.93644,1.3412 4.8182,7.05421 4.94775,14.88286 4.41728,22.79704 -0.11112,1.65739 0.55241,2.562 1.96722,2.61406 3.57994,0.13174 6.83953,2.14631 10.53484,1.61794 1.20906,-0.17288 2.57741,-0.0444 3.21131,1.43052 0.28053,0.65264 0.88276,0.94 1.53463,0.9304 8.59694,-0.12659 17.13131,2.21956 25.76892,0.60278 6.57364,-1.23047 12.4539,-4.01349 17.60952,-8.17163 11.63093,-9.38073 24.73672,-13.79397 39.77096,-13.65133 11.98689,0.11371 23.9919,-0.54658 35.99674,-0.46619 2.4387,0.0163 3.51583,-1.65744 2.67449,-4.32886 -1.21419,-3.85563 -1.80259,-7.52885 1.95099,-11.00046 -7.54627,-1.54191 -14.82965,-1.59786 -21.75779,-3.493114 -0.005,-1.532897 1.05019,-1.302974 1.79414,-1.377691 6.59845,-0.662818 13.20106,-1.284117 19.80076,-1.935019 2.40498,-0.2372 4.76047,-0.497442 6.55237,-2.516037 0.94354,-1.062907 2.69386,-0.452481 3.63259,-0.805937 4.92696,-1.855169 8.63549,2.360313 13.02437,2.150576 6.51718,-0.311449 13.00924,-1.118981 19.5211,-1.587959 2.82302,-0.203294 5.69528,-0.913593 8.59569,0.372169 -10.48504,2.203297 -20.80896,4.770789 -31.58251,7.119382 0.59903,0.6643 0.75116,0.98925 0.98891,1.0739 6.47947,2.30702 6.7076,5.43808 5.05999,12.70362 -0.2518,1.11033 -0.72838,2.20329 0.3152,2.95609 4.16764,3.00631 2.00605,7.20687 2.1585,10.96259 -11.32328,0.48502 -13.27895,-2.35956 -14.63452,4.54871 -0.55524,2.99606 -0.83248,6.04292 -1.35044,9.04699 -0.19738,1.14495 0.0635,2.70636 -1.72254,2.97773 -1.61541,0.24546 -2.87302,-0.33945 -3.83598,-1.65669 -1.49359,-2.04298 -2.97876,-4.09416 -4.53753,-6.08707 -2.69304,-3.44306 -4.73756,-3.93875 -9.00404,-2.51033 -0.96518,0.32314 -2.07503,0.2487 -3.12089,0.29106 -10.64453,0.43117 -21.25824,-0.62299 -31.89447,-0.66961 -10.66578,-0.0468 -19.95738,3.48415 -28.26576,10.11737 -9.73686,7.77363 -20.86208,11.94504 -33.37778,12.79313 -5.99578,0.40631 -11.96325,0.50521 -17.95408,0.49805 -3.08077,-0.004 -6.29084,3.07122 -6.3796,6.133262 -0.11664,4.02578 0.35651,7.84995 2.99131,11.26481 2.33481,3.02614 1.86027,4.08862 -1.89634,4.7529 -2.92622,0.51748 -1.96595,2.23205 -1.38171,3.73083 3.10003,7.95248 6.26526,15.87972 9.44007,23.80281 7.6428,19.07365 15.22493,38.17238 23.01902,57.18412 1.69179,4.1267 4.16989,7.93105 6.49682,12.27799 -3.4263,0.73457 -6.83007,0.63277 -10.69204,0.0657 2.65361,-4.04044 0.61161,-7.5858 -0.60985,-10.71302 -9.96761,-25.52013 -20.23648,-50.92266 -30.42324,-76.35713 -1.88062,-4.69569 -3.22796,-9.73528 -5.87322,-13.95709 -2.55304,-4.07462 -5.86805,-8.19964 -11.68377,-8.05368 -1.82875,0.0459 -2.86605,-0.80299 -3.58222,-2.48025 -1.90333,-4.457742 -8.81111,-6.129962 -12.53879,-3.136942 -0.92783,0.744992 -1.01849,1.771162 -1.11524,2.834412 -0.34913,3.83749 -1.76919,5.26831 -5.58316,5.25151 -4.61519,-0.0203 -9.2159,0.37752 -13.84978,-0.49842 -4.46804,-0.84457 -4.83272,0.52724 -6.37666,4.51409 -3.00424,7.75788 -0.29003,15.43579 -0.7687,23.11457 -0.089,1.4283 0.0875,3.12584 0.79647,4.30552 2.48054,4.12758 4.12397,8.50384 4.89645,13.236 0.11016,0.67497 0.57964,1.15812 1.19003,1.37976 3.21953,1.16907 5.09506,3.60685 6.38233,6.62697 0.67291,1.57864 2.08576,1.52402 3.476,1.59436 3.84981,0.19476 4.49491,0.88044 4.56529,4.77945 0.019,1.0537 0.034,2.11251 -0.0443,3.16186 -0.17195,2.3051 -1.16236,3.87456 -3.76333,3.59044 -2.51812,-0.27508 -4.10747,0.62692 -5.21881,3.00214 -1.2631,2.69954 -3.44406,4.45361 -6.59998,4.78083 -1.8919,0.19614 -2.74442,1.47012 -2.66918,3.30173 0.37493,9.1253 0.20023,18.28993 2.34651,27.27966 0.4066,1.70309 1.60222,2.59836 2.89509,4.15719 -4.46285,1.76951 -8.58021,1.0186 -13.35577,0.23558 4.56536,-3.68206 3.84285,-8.53616 3.85328,-12.92948 0.0152,-6.40966 -0.72676,-12.82119 -1.14734,-19.23182 -0.0551,-0.83935 0.0132,-1.81121 -1.16881,-1.8957 -0.9244,-0.0661 -1.61326,0.42622 -2.00209,1.2723 -0.26354,0.57348 -0.44125,1.18817 -0.7251,1.75023 -2.14825,4.25411 -4.70832,7.2409 -10.37731,6.93009 -9.31329,-0.51058 -8.72137,-0.98638 -9.22764,9.20369 -0.18218,3.66721 -0.59136,7.87634 3.051,10.67665 -2.49925,1.56698 -7.70878,1.67771 -10.67233,0.36896 2.88331,-5.53574 3.29549,-11.51939 3.23914,-17.58439 -0.0158,-1.69227 -1.15856,-2.43933 -2.66057,-2.58052 -1.77925,-0.16722 -3.57393,-0.17989 -5.3627,-0.23379 -2.24553,-0.0677 -4.54007,0.44839 -5.93586,-2.32658 -0.67021,-1.33248 -2.63484,-1.03817 -4.11211,-1.03651 -8.12024,0.009 -16.24048,0.0262 -24.36071,0.0392 -4.81722,0.008 -5.29483,-0.55437 -5.49201,-5.47362 -0.20423,-5.09465 0.0339,-10.1118 1.74128,-14.97097 0.84028,-2.39131 0.56385,-4.69804 -0.13833,-7.11247 -1.64615,-5.66025 -0.18671,-9.8251 4.59472,-10.9366 3.07199,-0.71412 6.17347,-2.00752 9.51246,-1.69061 1.9223,0.18245 3.81041,0.0274 4.62102,-2.33899 0.4561,-1.33148 1.84287,-1.35562 2.97267,-1.29742 2.24937,0.1159 3.9271,-0.77549 5.01347,-2.64994 1.81979,-3.13989 5.83433,-3.58934 7.87673,-6.57798 0.48456,-0.70901 2.58123,-0.34924 3.93953,-0.42137 2.83861,-0.15068 5.67914,-0.26652 8.51931,-0.38671 1.3824,-0.0585 2.19251,-0.75843 2.23283,-2.14018 0.0389,-1.33251 -1.07327,-1.25653 -1.97679,-1.54032 -2.25785,-0.70907 -4.55853,-0.7078 -6.8819,-0.72348 -2.67757,-0.0181 -4.24463,-0.99554 -4.31756,-4.12352 -0.11017,-4.72731 -0.56343,-9.44382 -0.55126,-14.18763 0.01,-3.74685 -4.45056,-6.92721 -8.13976,-6.01108 -1.22689,0.30469 -2.42372,0.76541 -3.66473,0.97099 -2.74501,0.4547 -3.69811,2.20626 -3.52681,4.73247 0.12186,1.79723 0.33047,3.64813 -2.25659,3.47699 -2.42219,-0.16024 -2.75141,-1.82085 -2.36646,-3.88446 0.32757,-1.756 0.14299,-3.36609 -1.7521,-4.28288 -2.20737,-1.06791 -0.62535,-3.03884 -0.91227,-4.54826 -0.32166,-1.69229 -0.0736,-3.592442 -2.29692,-3.869952 -2.07689,-0.25927 -2.87402,1.313172 -3.37959,3.055552 -0.58686,2.02261 -1.90127,2.98216 -4.04629,2.52384 -0.84213,-0.17993 -1.73603,-0.3908 -2.46854,0.089 -3.55716,2.33006 -7.6076,4.37054 -9.29657,8.49458 -12.34088,30.13356 -24.60453,60.29951 -36.67393,90.54245 -1.31693,3.29993 -3.22112,6.89994 -1.42018,11.12828 -3.31725,1.41893 -6.65223,0.4821 -10.3508,0.39342 9.57795,-16.04002 14.84595,-33.39323 22.10979,-50.13968 M 103.39896,60.821468 c 4.32623,2.25259 7.98395,5.4735 11.97103,8.21591 8.43578,5.80234 17.4703,9.36632 28.10991,7.88546 6.94217,-0.96623 13.95758,-0.019 20.97167,-2.4549 3.68843,-1.28095 8.24139,-2.28636 12.6061,-1.76788 1.05341,0.12514 2.21884,-0.18436 2.71119,-1.26644 2.41292,-5.30298 6.64984,-9.95239 5.6923,-16.57125 -0.98084,-0.36474 -1.93792,0.42691 -2.94549,0.89767 -3.0011,1.40215 -6.14683,2.45989 -9.45576,2.0782 -13.62707,-1.57184 -27.30445,-1.78382 -40.99286,-1.71723 -11.27072,0.0548 -22.54086,0.2317 -33.811296,0.35057 -1.28525,0.0136 -2.57072,0.002 -4.32572,0.002 3.34182,1.53038 6.194636,2.83681 9.468926,4.34807 m 174.4053,-7.61625 c 1.97568,-0.0261 3.62807,-0.90686 5.19316,-1.99289 0.7022,-0.48723 1.3738,-1.08256 1.1947,-2.03704 -0.1803,-0.961 -1.03147,-1.35284 -1.86429,-1.43957 -3.73339,-0.38878 -7.47212,-0.89376 -11.21548,-0.95518 -2.12122,-0.0348 -2.70463,1.92245 -1.18032,3.53483 1.97135,2.08525 4.46027,3.04647 7.87223,2.88985 m -32.39239,63.193282 c -1.50129,0.453 -2.02342,1.81824 -2.54875,3.02666 -0.47782,1.09915 -1.05422,2.91135 0.46728,3.27377 2.74847,0.65472 4.71542,2.40693 7.243,4.58606 0.33055,-4.91317 0.74788,-9.04459 -1.83995,-13.0212 -1.20855,0.82048 -2.05493,1.39507 -3.32158,2.13471 M 265.5779,12.198256 c 1.68595,1.867559 3.85452,1.286116 5.89265,1.062508 1.14881,-0.126033 2.2265,-0.278606 3.41177,-0.07703 3.42459,0.582418 6.87391,1.037664 10.32686,1.423211 0.9588,0.107048 2.33183,0.35026 2.57705,-1.100554 0.26825,-1.586871 -1.08635,-1.814852 -2.21642,-2.086699 -0.5069,-0.121926 -1.03768,-0.190929 -1.559,-0.199244 -5.36226,-0.08539 -10.70247,-0.434534 -16.02426,-1.128057 -1.20052,-0.1564463 -2.70146,-0.3371733 -2.40865,2.105862 M 235.2376,131.60403 c -1.67217,0.98725 -2.08597,2.91709 -1.2252,4.06865 2.35373,3.14883 5.51497,5.44302 9.56882,6.52097 -1.25676,-3.73004 -2.96181,-7.10919 -5.54395,-9.99183 -0.5822,-0.64997 -1.48593,-0.73899 -2.79967,-0.59779 m -68.96373,-19.57732 c 0.25418,-0.68263 0.63033,-1.43726 -0.15143,-1.96564 -0.72291,-0.48859 -1.42481,-0.10266 -1.94838,0.4476 -1.11809,1.17513 -2.18654,2.39751 -3.4196,3.75994 2.89515,1.83859 4.39726,0.76943 5.51941,-2.2419 m 152.28932,-1.28945 c -1.30686,-0.51156 -1.41582,0.40279 -1.45046,1.27773 -0.13944,3.51926 2.09387,4.77743 5.57975,3.01202 -1.29851,-1.37124 -2.56875,-2.71259 -4.12929,-4.28975 z"
   id="path876-3"
   inkscape:connector-curvature="0"
   style="opacity:1;fill:#000000;stroke:none;stroke-width:0.63282216"
   sodipodi:nodetypes="cccccccssscccccccssccccccccccccccccccccccccccccccccccccccccccsscccccsccccccsccccccssccccccccsccccccccccccccccccscscccccccccccccccccccccccscccccccccccccccccccsccccccccccccccccccccsccccccscsccccccccccccccccccccccccccscscccccccccccccscccccccccccccccccccccccccccccc" /></svg>