<?xml version="1.0" encoding="UTF-8" standalone="no"?>
<svg
   xmlns:dc="http://purl.org/dc/elements/1.1/"
   xmlns:cc="http://creativecommons.org/ns#"
   xmlns:rdf="http://www.w3.org/1999/02/22-rdf-syntax-ns#"
   xmlns:svg="http://www.w3.org/2000/svg"
   xmlns="http://www.w3.org/2000/svg"
   xmlns:sodipodi="http://sodipodi.sourceforge.net/DTD/sodipodi-0.dtd"
   xmlns:inkscape="http://www.inkscape.org/namespaces/inkscape"
   version="1.1"
   id="Layer_1"
   x="0px"
   y="0px"
   width="790.11145"
   viewBox="0 0 790.11145 343.39557"
   enable-background="new 0 0 1024 560"
   xml:space="preserve"
   sodipodi:docname="astro_side_off.svg"
   height="343.39557"
   inkscape:version="0.92.5 (2060ec1f9f, 2020-04-08)"><metadata
   id="metadata883"><rdf:RDF><cc:Work
       rdf:about=""><dc:format>image/svg+xml</dc:format><dc:type
         rdf:resource="http://purl.org/dc/dcmitype/StillImage" /><dc:title></dc:title></cc:Work></rdf:RDF></metadata><defs
   id="defs881" /><sodipodi:namedview
   pagecolor="#ffffff"
   bordercolor="#666666"
   borderopacity="1"
   objecttolerance="10"
   gridtolerance="10"
   guidetolerance="10"
   inkscape:pageopacity="0"
   inkscape:pageshadow="2"
   inkscape:window-width="1848"
   inkscape:window-height="1136"
   id="namedview879"
   showgrid="false"
   inkscape:zoom="0.64794922"
   inkscape:cx="690.50804"
   inkscape:cy="27.268686"
   inkscape:window-x="355"
   inkscape:window-y="1467"
   inkscape:window-maximized="1"
   inkscape:current-layer="Layer_1" />

<path
   d="m 229.0486,260.70712 c 10.22311,-25.14521 20.28314,-49.94284 30.2109,-74.41452 -0.81707,-0.85874 -1.00909,-1.25428 -1.27078,-1.30759 -8.82983,-1.79868 -9.38806,-2.77991 -4.12738,-9.89829 4.01511,-5.4331 3.84973,-11.48245 3.45236,-17.55038 -0.24868,-3.79797 -6.37838,-7.99545 -10.66586,-8.20377 -14.42471,-0.70077 -28.91168,-0.50579 -43.15832,-3.58526 -14.58851,-3.15332 -27.91565,-9.04123 -39.45835,-18.45514 -14.83047,-12.09534 -31.56662,-18.06481 -50.71228,-17.73669 -16.29982,0.27936 -32.58494,1.59023 -48.90191,0.77752 -2.47513,-0.12328 -4.75611,-0.24926 -7.06617,-1.7985 -3.53665,-2.37184 -9.6177,-0.59921 -13.45462,3.58172 -3.03766,3.30997 -5.77629,6.89307 -8.68429,10.32385 -1.40465,1.6572 -2.82131,3.47687 -5.39353,2.85622 -2.64494,-0.63817 -2.19734,-2.98946 -2.48697,-4.88361 -0.65376,-4.27594 -1.41125,-8.54271 -1.86155,-12.84096 -0.37001,-3.53195 -1.25224,-9.02542 -4.09481,-11.480252 -6.578181,-0.158991 -9.418212,-0.02407 -15.0424882,-0.0031 -3.219691,0.01199 -6.15260297,0.12407 -5.91188297,-2.82156 0.36735,-4.4952 -0.54428,-8.85603 3.24463997,-12.96718 2.4162,-2.62167 1.08196,-7.4951 0.57918,-11.18239 -0.91373,-6.70106 2.03217,-10.5253 7.6532302,-13.17889 3.02699,-1.42899 5.08623,-3.95264 7.57954,-6.7152 -7.44931,-5.50732 -12.8467802,1.88219 -18.91241017,2.00379 -1.32063,-1.83561 -0.0101,-2.98632 0.73529997,-4.17018 6.38262,-10.13746 13.3302302,-19.94198 16.7431202,-31.69011 1.07718,-3.70803 10.352141,-6.7847795 13.986161,-5.03678 0.68175,0.32791 1.55278,1.05567 1.64401,1.69739 1.14139,8.02653 5.6637,14.93182 7.43905,22.75142 0.82319,3.62584 0.53619,6.19359 -3.11205,8.38463 -4.47148,2.68542 -3.64989,9.89993 1.33202,11.48262 3.6199,1.15001 6.46286,3.37399 9.3773,5.36216 3.54379,2.41753 2.86516,6.8778 3.12109,10.6776 0.0496,0.7363 -0.68057,1.49162 -0.82737,2.27985 -1.31591,7.06535 0.008,8.83078 7.20242,8.9705 9.32935,0.18122 18.78972,-0.81906 27.96687,0.3987 15.96376,2.11829 32.09023,1.13914 48.01389,3.5425 9.44784,1.42594 18.91788,-0.80024 28.39307,-1.11207 15.13678,-0.49818 30.24429,-1.82261 45.37515,-2.57724 28.59741,-1.42622 57.1965,-2.80743 85.74817,-5.00006 5.46576,-0.41975 10.74725,-2.0211 16.26883,-2.41664 3.80224,-0.27238 6.4068,-4.3482 10.62649,-4.78616 1.3953,-0.14481 1.23065,-2.57736 1.16696,-4.02699 -0.15847,-3.60805 1.73905,-5.08591 5.04505,-5.43492 6.65139,-0.70223 13.29889,-0.59385 19.95044,-0.0452 2.88968,0.23838 4.32595,1.45018 4.50708,4.69361 0.24356,4.36232 2.73575,5.93005 6.82043,4.16746 3.13346,-1.35211 5.39523,-0.90304 7.63873,1.29605 1.01917,0.99904 2.24979,1.39336 3.64197,1.32175 9.47531,-0.48741 18.94977,-0.99069 28.42542,-1.47179 3.90759,-0.19838 6.03802,-1.92543 6.24304,-6.12425 0.16467,-3.37347 0.33734,-6.66701 3.68402,-9.25134 2.20868,-1.70566 1.11621,-5.31937 1.27606,-8.11578 0.14234,-2.49112 0.51868,-4.97373 0.56561,-7.46436 0.082,-4.34541 0.17359,-8.53325 6.04609,-9.00145 0.77734,-0.062 1.39813,-0.85669 1.49566,-2.09329 -1.80297,-1.81951 -3.80993,-1.22229 -5.67303,0.0147 -2.64362,1.75515 -4.58771,1.33874 -6.19458,-1.39928 -2.14661,-3.6575 -5.1828,-4.59122 -9.57605,-5.37001 -9.25018,-1.63979 -17.3411,0.54152 -25.7479,3.48775 -7.56567,2.65146 -15.41641,2.02849 -23.17132,0.24695 -22.72516,-5.22069 -45.81534,-8.10329 -68.93765,-10.81971 -23.93988,-2.81247 -47.85382,-5.8450895 -71.79114,-8.6798195 -7.75778,-0.9187 -15.55411,-1.5109 -23.33148,-2.26593 -1.74436,-0.16934 -3.7826,0.36471 -4.82782,-2.03197 1.65298,-2.37342018 4.20443,-1.47193018 6.29687,-1.34101018 15.45111,0.96668018 30.89102,2.11123018 46.33609,3.17565018 17.76721,1.22443 35.53674,2.41503 53.30414,3.63646 27.89908,1.91791 55.79602,3.8666395 83.6965,5.7639595 7.88764,0.53638 15.70362,1.01337 23.65473,-0.45347 5.47949,-1.01088 11.63159,1.83686 16.47949,-3.1232195 0.50543,-0.5171 2.02112,-0.48788 2.86218,-0.16897 11.18152,4.2400895 23.02252,2.5612395 34.52869,3.7477795 6.48187,0.66846 13.17346,2.67636 19.74774,-0.10359 0.6015,-0.25438 1.9563,0.0767 2.29608,0.5826 3.77967,5.62759 9.87287,4.99554 15.31317,5.42248 20.56763,1.61408 41.16553,2.83631 61.74433,4.31395 20.90545,1.50113 41.79876,3.17182 62.703,4.69052 15.93262,1.15755 31.87799,2.14008 47.8103,3.30127 11.94586,0.87067 23.88043,1.89621 35.81865,2.87011 1.1288,0.0921 2.3704,-0.0112 3.3097,1.51266 -0.4144,3.49501 -3.005,4.63225 -6.217,4.66185 -3.65586,0.0337 -7.31479,-0.3983 -10.97232,-0.39662 -38.82807,0.0178 -77.65753,-0.0886 -116.4834,0.23032 -12.62439,0.10369 -25.28784,1.06549 -37.77399,3.03259 -9.3501,1.47305 -17.46985,-0.6174 -24.95855,-6.03839 -7.03394,-5.09183 -14.65925,-8.35856 -23.52112,-8.74057 -2.469,-0.10645 -4.54236,0.30476 -5.70117,2.02357 -2.34595,3.47948 -4.88343,4.18416 -8.6521,1.48155 5.02691,6.63585 1.74664,13.52617 1.24658,19.9659 -0.43012,5.53868 3.77673,9.00145 4.09442,13.97151 0.10223,1.59906 2.47064,1.34221 3.92389,1.26085 20.94098,-1.17229 41.87903,-2.39616 62.8194,-3.58002 3.74835,-0.21191 7.52227,-0.63679 11.23925,0.0743 0.36597,4.14928 -2.40228,4.58498 -4.79663,4.86814 -15.85827,1.87553 -31.73266,3.61627 -47.60235,5.395 -3.5882,0.40216 -7.22931,0.5408 -10.96112,2.1194 7.61383,11.14723 7.81854,23.51823 6.98028,36.024402 -0.1756,2.61905 0.87293,4.04854 3.10864,4.1308 5.65711,0.20818 10.80799,3.39165 16.6474,2.5567 1.91059,-0.27319 4.07288,-0.0702 5.07459,2.26055 0.4433,1.03131 1.39496,1.48541 2.42505,1.47023 13.58508,-0.20004 27.07129,3.50741 40.72064,0.95253 10.38782,-1.94441 19.67993,-6.3422 27.82697,-12.913 18.37945,-14.823632 39.08953,-21.797532 62.84698,-21.572132 18.94196,0.17969 37.91254,-0.86372 56.88286,-0.73669 3.8537,0.0258 5.5558,-2.61913 4.2263,-6.84056 -1.9187,-6.09276 -2.8485,-11.89727 3.083,-17.38318 -11.9248,-2.43656 -23.43416,-2.52497 -34.38216,-5.5199 -0.008,-2.42232 1.65954,-2.05899 2.83514,-2.17706 10.42702,-1.0474 20.86062,-2.02919 31.28962,-3.05776 3.8004,-0.37483 7.5226,-0.78607 10.3542,-3.9759 1.491,-1.67963 4.2569,-0.71502 5.7403,-1.27356 7.7857,-2.93158 13.646,3.72982 20.5814,3.39839 10.2986,-0.49216 20.5575,-1.76824 30.8477,-2.50933 4.461,-0.32125 8.9998,-1.44368 13.5831,0.58811 -16.5687,3.4817 -32.8828,7.53891 -49.9074,11.25021 0.9466,1.04975 1.187,1.56323 1.5627,1.69701 10.239,3.6456 10.5995,8.59337 7.9959,20.07455 -0.3979,1.75456 -1.151,3.48168 0.4981,4.67127 6.5858,4.75064 3.17,11.38846 3.4109,17.323332 -17.8933,0.76644 -20.9837,-3.72862 -23.1258,7.18798 -0.8774,4.73445 -1.3155,9.54916 -2.134,14.29626 -0.3119,1.80928 0.1003,4.27665 -2.722,4.70548 -2.5527,0.38788 -4.54,-0.53641 -6.0617,-2.61794 -2.3602,-3.22837 -4.7071,-6.46968 -7.1703,-9.61892 -4.2556,-5.44081 -7.4864,-6.22411 -14.2284,-3.96688 -1.5252,0.51062 -3.279,0.39299 -4.9317,0.45993 -16.82072,0.68134 -33.59275,-0.98446 -50.40037,-1.05813 -16.85431,-0.0739 -31.53711,5.50574 -44.6662,15.9877 -15.38641,12.28406 -32.96673,18.87582 -52.74432,20.216 -9.47467,0.64206 -18.9046,0.79834 -28.37146,0.78702 -4.86829,-0.006 -9.94092,4.85321 -10.08118,9.69193 -0.18432,6.36163 0.56336,12.40466 4.72693,17.8009 3.68952,4.78198 2.93964,6.46094 -2.99664,7.51065 -4.62408,0.81772 -3.10663,3.52713 -2.18341,5.89554 4.89874,12.56668 9.90051,25.0935 14.91742,37.61374 12.07733,30.14062 24.05878,60.32086 36.37518,90.36365 2.6734,6.52111 6.58936,12.53283 10.26642,19.40197 -5.41431,1.16077 -10.79303,0.99991 -16.89581,0.10376 4.1933,-6.38479 0.96649,-11.98724 -0.96369,-16.92895 -15.75104,-40.32749 -31.97815,-80.46915 -48.0755,-120.66129 -2.9718,-7.42023 -5.10089,-15.38391 -9.281,-22.0553 -4.03437,-6.43881 -9.27283,-12.95727 -18.46295,-12.72662 -2.88984,0.0725 -4.529,-1.26889 -5.66071,-3.91934 -3.00769,-7.04422 -13.92352,-9.68671 -19.81409,-4.95706 -1.46618,1.17724 -1.60943,2.79882 -1.76233,4.479 -0.55169,6.06409 -2.79571,8.3251 -8.82263,8.29855 -7.29303,-0.0321 -14.56317,0.59656 -21.88574,-0.78762 -7.06049,-1.3346 -7.63678,0.83316 -10.07654,7.13327 -4.74737,12.25918 -0.45831,24.39199 -1.21472,36.52618 -0.14069,2.25702 0.1383,4.93951 1.2586,6.80368 3.9198,6.52249 6.51679,13.43796 7.73749,20.91583 0.17407,1.06659 0.91596,1.83008 1.8805,2.18033 5.08758,1.84738 8.05133,5.69962 10.08551,10.47208 1.06335,2.4946 3.29596,2.40829 5.49286,2.51944 6.08355,0.30777 7.10296,1.39129 7.21417,7.55261 0.0301,1.66507 0.0537,3.33823 -0.07,4.99643 -0.27173,3.64258 -1.83679,6.12268 -5.9469,5.6737 -3.97919,-0.43469 -6.49072,0.99067 -8.24689,4.74405 -1.99597,4.26587 -5.44238,7.03769 -10.42944,7.55478 -2.98962,0.30994 -4.33679,2.32312 -4.21789,5.21747 0.59246,14.42001 0.3164,28.90216 3.708,43.10794 0.64252,2.69126 2.53186,4.10599 4.57489,6.56928 -7.0523,2.79623 -13.55865,1.60962 -21.1051,0.37228 7.21429,-5.81848 6.07257,-13.48904 6.08905,-20.43146 0.024,-10.12869 -1.14844,-20.26034 -1.81305,-30.39056 -0.0871,-1.32636 0.0208,-2.86212 -1.84698,-2.99564 -1.46076,-0.10446 -2.54932,0.67353 -3.16376,2.01053 -0.41644,0.90622 -0.69727,1.87757 -1.14581,2.76575 -3.39472,6.72244 -7.44019,11.44223 -16.39847,10.95108 -14.71707,-0.80682 -13.78171,-1.55869 -14.58173,14.54388 -0.28787,5.79502 -0.93448,12.44638 4.82126,16.87149 -3.94937,2.47617 -12.18158,2.65116 -16.86465,0.58304 4.55627,-8.74771 5.20761,-18.20321 5.11856,-27.78726 -0.0249,-2.67416 -1.83078,-3.85468 -4.20429,-4.07779 -2.81161,-0.26425 -5.64761,-0.28427 -8.47427,-0.36944 -3.54843,-0.10691 -7.17432,0.70855 -9.37998,-3.67652 -1.05908,-2.10562 -4.16363,-1.64053 -6.49804,-1.63791 -12.83179,0.0144 -25.66358,0.0414 -38.49536,0.062 -7.61228,0.0122 -8.36701,-0.87603 -8.67859,-8.64953 -0.32273,-8.05069 0.0535,-15.97891 2.75161,-23.65747 1.32782,-3.77881 0.891,-7.42395 -0.21859,-11.23929 -2.60129,-8.94446 -0.29505,-15.52585 7.26068,-17.28226 4.85443,-1.12848 9.75546,-3.17233 15.0318,-2.67154 3.03766,0.2883 6.0213,0.0433 7.30224,-3.69613 0.72074,-2.10404 2.91214,-2.14218 4.69748,-2.05021 3.55451,0.18314 6.20569,-1.22546 7.9224,-4.1875 2.87567,-4.96173 9.21954,-5.67196 12.44699,-10.39468 0.76571,-1.12039 4.07892,-0.55188 6.22534,-0.66586 4.48563,-0.2381 8.9743,-0.42115 13.4624,-0.61109 2.18451,-0.0925 3.46466,-1.19848 3.52838,-3.38195 0.0615,-2.10566 -1.69601,-1.9856 -3.12378,-2.43406 -3.5679,-1.12048 -7.20349,-1.11847 -10.87493,-1.14325 -4.23115,-0.0286 -6.70746,-1.57318 -6.8227,-6.51608 -0.1741,-7.47021 -0.89035,-14.92334 -0.87112,-22.41962 0.0152,-5.92086 -7.03287,-10.94653 -12.86264,-9.49884 -1.93875,0.48148 -3.83002,1.20951 -5.79108,1.53437 -4.33774,0.71853 -5.84384,3.48639 -5.57315,7.47836 0.19257,2.84003 0.52222,5.76486 -3.56592,5.49442 -3.8276,-0.25321 -4.34784,-2.87735 -3.73953,-6.13831 0.51764,-2.77487 0.22595,-5.31918 -2.76871,-6.76791 -3.48813,-1.68753 -0.98819,-4.80204 -1.44159,-7.18726 -0.5083,-2.67419 -0.1163,-5.67685 -3.62964,-6.11539 -3.28195,-0.4097 -4.54159,2.07511 -5.34051,4.82846 -0.92737,3.19617 -3.00443,4.71247 -6.39404,3.98822 -1.33075,-0.28433 -2.74332,-0.61755 -3.90085,0.14069 -5.6211,3.68201 -12.0217,6.90643 -14.69065,13.42334 -19.50134,47.61774 -38.88064,95.28665 -57.95297,143.07724 -2.08105,5.21463 -5.09009,10.90344 -2.2442,17.58517 -5.242,2.24222 -10.51202,0.76182 -16.35657,0.62168 15.13529,-25.3468 23.4599,-52.76874 34.93839,-79.23187 M 163.39352,96.111404 c 6.83642,3.5596 12.61642,8.649346 18.9169,12.982966 13.33041,9.16899 27.60696,14.80088 44.41992,12.46079 10.97018,-1.52686 22.05609,-0.03 33.13992,-3.87929 5.82853,-2.02419 13.02323,-3.61296 19.92044,-2.79364 1.66462,0.19774 3.50626,-0.29134 4.28428,-2.00127 3.81295,-8.37989 10.50824,-15.726986 8.99511,-26.186256 -1.54995,-0.57637 -3.06235,0.67461 -4.65454,1.41852 -4.7424,2.2157 -9.71335,3.88716 -14.9422,3.28401 -21.53381,-2.48386 -43.14712,-2.81883 -64.77786,-2.71361 -17.81024,0.0866 -35.61957,0.36615 -53.42938,0.55399 -2.03098,0.0214 -4.06232,0.003 -6.8356,0.003 5.28082,2.41834 9.7889,4.48279 14.96301,6.87091 m 275.59924,-12.03537 c 3.12201,-0.0413 5.73316,-1.43303 8.20636,-3.14921 1.10962,-0.76993 2.1709,-1.71068 1.88788,-3.21898 -0.28491,-1.51859 -1.62995,-2.13778 -2.94599,-2.27483 -5.89959,-0.61436 -11.80761,-1.41235 -17.72296,-1.5094 -3.35199,-0.055 -4.27392,3.0379 -1.86517,5.58582 3.11517,3.29515 7.04822,4.8141 12.43988,4.5666 m -51.18719,99.859466 c -2.37238,0.71585 -3.19745,2.87323 -4.02759,4.7828 -0.75507,1.73691 -1.6659,4.60059 0.7384,5.17328 4.3432,1.03461 7.45142,3.8035 11.44556,7.24701 0.52234,-7.76391 1.18182,-14.29248 -2.90753,-20.57641 -1.90979,1.29654 -3.24726,2.20453 -5.24884,3.37332 M 419.67239,19.275894 c 2.66418,2.95116 6.091,2.03235 9.3117,1.679 1.81537,-0.19916 3.51837,-0.44026 5.39136,-0.12172 5.41162,0.92035 10.86231,1.63974 16.31873,2.24899 1.51513,0.16916 3.68481,0.55349 4.07232,-1.73912 0.42389,-2.50761 -1.71667,-2.86787 -3.50244,-3.29745 -0.80102,-0.19267 -1.63977,-0.30171 -2.46356,-0.31485 -8.47357,-0.13494 -16.91229,-0.68666 -25.3219,-1.78258 -1.89709,-0.24722 -4.26892,-0.53281 -3.80621,3.32773 M 371.72796,207.96363 c -2.6424,1.56006 -3.2963,4.60965 -1.9361,6.42936 3.71943,4.97586 8.71488,8.60119 15.12088,10.30459 -1.98596,-5.89429 -4.68033,-11.2341 -8.76068,-15.78931 -0.92001,-1.0271 -2.34811,-1.16778 -4.4241,-0.94464 M 262.74989,177.02709 c 0.40167,-1.0787 0.99606,-2.27118 -0.23929,-3.10614 -1.14236,-0.77209 -2.25152,-0.16223 -3.07888,0.70731 -1.76682,1.85696 -3.45521,3.7886 -5.40372,5.94153 4.57498,2.90539 6.94864,1.21588 8.72189,-3.5427 m 240.65106,-2.03762 c -2.06512,-0.80838 -2.2373,0.6365 -2.29205,2.0191 -0.22034,5.56122 3.30878,7.54941 8.81726,4.75967 -2.05194,-2.16687 -4.0592,-4.2865 -6.52521,-6.77877 z"
   id="path876-3"
   inkscape:connector-curvature="0"
   style="opacity:1;fill:#000000;stroke:none"
   sodipodi:nodetypes="cccccccssscccccccssccccccccccccccccccccccccccccccccccccccccccsscccccsccccccsccccccssccccccccsccccccccccccccccccscscccccccccccccccccccccccscccccccccccccccccccsccccccccccccccccccccsccccccscsccccccccccccccccccccccccccscscccccccccccccscccccccccccccccccccccccccccccc" /></svg>