<svg xmlns="http://www.w3.org/2000/svg" version="1.0" preserveAspectRatio="xMidYMid meet" viewBox="176 720.01 1652.5 629.36" width="250" height="100">

<g transform="translate(0.000000,2000.000000) scale(0.100000,-0.100000)" fill="#1b1e23" stroke="none">
<path d="M7930 12781 c-47 -16 -124 -29 -280 -47 -19 -2 -55 -7 -80 -10 -25 -4 -61 -8 -80 -9 -38 -4 -315 -43 -695 -100 -16 -3 -123 -18 -237 -35 -113 -16 -212 -32 -220 -35 -12 -4 -78 -13 -153 -21 -16 -1 -84 -12 -150 -22 -66 -11 -201 -32 -300 -46 -99 -15 -217 -33 -261 -41 -104 -19 -154 -19 -154 -2 0 8 18 22 40 32 22 10 40 22 40 27 0 6 -44 8 -102 7 -72 -2 -103 1 -106 9 -2 7 -12 12 -23 12 -12 0 -23 10 -29 25 -7 17 -17 25 -34 25 -34 0 -56 -10 -56 -25 0 -14 -41 -21 -344 -61 -153 -20 -204 -24 -218 -15 -31 19 -73 13 -96 -14 -12 -14 -26 -25 -32 -25 -5 0 -10 -9 -10 -20 0 -12 -8 -21 -22 -24 -49 -10 -159 -26 -278 -40 -126 -15 -939 -125 -1745 -236 -242 -34 -464 -64 -492 -67 -35 -4 -53 -10 -53 -19 0 -8 8 -14 18 -14 27 0 385 45 687 86 142 19 268 33 280 32 11 -2 -18 -9 -65 -16 -294 -41 -389 -56 -505 -78 -71 -13 -150 -30 -175 -38 -25 -7 -52 -11 -60 -9 -13 4 -13 3 0 -6 10 -6 69 -6 165 0 171 10 683 14 692 5 4 -3 -43 -6 -103 -6 -98 0 -220 -6 -576 -26 -77 -5 -118 -11 -118 -18 0 -20 163 -50 233 -42 136 14 1747 -18 2014 -41 l71 -6 5 29 c4 26 4 25 6 -7 1 -29 6 -38 24 -43 l22 -7 -25 -11 -25 -11 34 -6 c47 -8 50 -27 6 -35 -40 -8 -48 -26 -11 -26 13 0 33 -3 43 -7 14 -6 10 -10 -21 -18 -48 -14 -57 -32 -19 -38 24 -3 22 -5 -16 -12 -61 -11 -85 -37 -77 -84 3 -20 6 -91 7 -159 0 -67 5 -124 10 -128 5 -3 9 6 9 19 0 24 3 25 113 36 61 6 136 14 165 17 48 5 52 4 52 -15 0 -12 3 -21 8 -22 4 0 31 -2 60 -4 29 -1 56 -6 59 -9 4 -3 -6 -19 -21 -35 l-28 -29 38 -214 c20 -117 42 -219 47 -225 11 -14 54 -16 147 -6 l63 6 20 46 c59 137 119 255 134 267 25 19 54 17 104 -5 30 -14 48 -17 60 -10 23 12 30 -12 65 -206 14 -82 31 -158 36 -169 9 -16 18 -18 96 -11 48 4 93 12 100 19 6 6 31 66 55 132 53 150 65 171 94 155 28 -14 569 -16 578 -1 3 6 45 10 93 10 87 0 87 0 157 -46 39 -26 126 -103 194 -172 140 -140 239 -222 341 -283 147 -87 332 -151 480 -165 36 -4 70 -11 77 -16 12 -9 60 -13 275 -20 l86 -3 0 -30 c0 -16 0 -36 1 -42 1 -10 29 -13 106 -13 63 0 105 -4 105 -10 0 -5 -8 -10 -19 -10 -33 0 -42 -24 -40 -109 2 -66 -1 -85 -16 -101 -23 -25 -24 -74 -1 -99 16 -17 14 -23 -35 -120 -65 -128 -62 -145 29 -155 40 -5 65 -13 77 -26 18 -20 14 -35 -119 -493 -576 -1972 -677 -2313 -691 -2323 -8 -6 -33 -60 -54 -120 -31 -88 -43 -110 -60 -112 -11 -2 -21 -9 -21 -17 0 -16 93 -22 256 -17 80 3 104 6 104 17 0 8 -12 15 -26 17 -38 4 -68 81 -55 140 5 22 15 45 23 49 7 5 50 9 94 9 63 0 83 3 88 15 4 11 -2 15 -20 15 -20 0 -29 9 -46 46 -18 41 -19 53 -9 100 5 30 8 60 5 68 -3 8 13 81 36 163 105 376 742 2650 746 2664 2 9 18 19 34 23 32 6 37 11 104 103 l45 62 63 3 62 3 11 56 c6 30 15 61 19 67 8 13 116 17 116 5 -1 -5 -7 -19 -15 -33 -19 -33 -19 -74 0 -110 9 -17 11 -30 5 -30 -5 0 -10 -13 -10 -29 0 -24 5 -30 29 -34 26 -6 31 -12 41 -62 10 -48 9 -60 -4 -80 -19 -29 -21 -66 -4 -83 22 -22 66 -14 85 14 16 24 16 28 -2 60 -13 24 -16 46 -12 80 6 55 29 78 67 69 32 -8 28 -3 40 -65 8 -43 7 -58 -5 -76 -22 -34 -19 -71 8 -88 51 -34 92 14 68 79 -34 96 17 175 115 175 16 0 53 11 82 25 30 14 60 25 67 25 8 0 14 -19 17 -52 6 -56 24 -78 66 -78 13 0 20 -4 17 -10 -4 -6 -14 -9 -23 -8 -20 4 -30 -38 -13 -55 6 -6 11 -43 11 -81 0 -39 3 -108 6 -153 6 -68 10 -82 25 -86 22 -6 24 -21 7 -38 -15 -13 -12 -177 3 -195 8 -10 122 -25 189 -25 25 0 25 0 22 -85 l-3 -84 -140 0 -139 0 0 -30 c0 -27 3 -30 30 -30 17 0 30 -4 30 -10 0 -5 -12 -10 -26 -10 -20 0 -24 -4 -19 -19 5 -15 0 -21 -25 -26 -38 -8 -86 -55 -125 -123 l-30 -52 -167 0 -168 0 0 -49 c0 -28 4 -52 10 -56 5 -3 7 -11 4 -18 -3 -8 -40 -12 -124 -13 -110 -1 -120 1 -120 18 0 17 -11 18 -135 18 -128 0 -135 -1 -135 -20 0 -11 -4 -20 -10 -20 -5 0 -10 -17 -10 -37 0 -46 -9 -61 -35 -61 -11 1 -26 0 -32 -1 -16 -1 -17 -67 -2 -77 6 -3 9 -17 6 -31 -3 -16 1 -27 14 -33 28 -15 29 -14 29 50 0 33 4 60 10 60 7 0 10 -173 10 -499 0 -297 4 -510 10 -525 5 -15 21 -28 37 -33 34 -9 307 -8 675 2 248 6 279 6 293 -9 9 -9 23 -16 31 -16 10 0 14 -12 14 -40 l0 -40 118 0 c64 0 285 0 490 0 435 0 405 -7 519 113 79 83 93 115 93 211 0 46 3 56 13 48 7 -6 74 -10 166 -10 131 0 155 -2 163 -16 7 -13 32 -16 166 -15 155 0 157 1 185 27 l27 26 0 347 c0 332 -1 347 -20 372 -16 20 -33 27 -77 33 -37 4 -63 3 -75 -5 -11 -7 -18 -7 -18 -1 0 6 -34 10 -84 10 -73 0 -87 -3 -99 -20 -12 -17 -28 -19 -180 -22 l-167 -3 0 60 c0 78 -15 129 -49 167 -15 17 -157 108 -317 202 l-289 171 -3 103 c-3 100 -2 102 20 102 56 -1 167 17 182 29 12 10 16 32 16 97 0 45 -4 86 -10 89 -18 11 -11 45 9 45 16 0 20 10 25 53 5 41 19 216 25 318 1 9 7 17 14 16 6 0 60 1 119 1 84 2 106 5 102 15 -8 21 31 50 56 42 39 -12 54 -106 26 -161 -17 -31 -8 -57 24 -74 44 -24 91 35 63 79 -21 33 -13 129 12 147 25 19 48 17 74 -4 20 -15 22 -26 22 -115 0 -80 3 -99 15 -104 25 -10 31 13 27 101 -6 96 4 121 47 131 25 5 30 11 30 36 0 16 -5 29 -11 29 -5 0 -3 10 5 22 20 28 21 98 1 124 -21 28 -18 34 19 34 39 0 54 -14 62 -61 12 -76 14 -79 39 -79 13 0 27 5 30 10 10 16 57 0 89 -29 15 -14 46 -52 67 -83 32 -46 45 -57 71 -60 24 -2 33 -9 39 -28 4 -14 50 -178 103 -365 52 -187 228 -814 391 -1394 163 -579 293 -1061 290 -1071 -3 -10 -1 -39 5 -65 15 -67 -9 -130 -52 -139 -18 -3 -28 -11 -26 -18 3 -9 39 -14 125 -16 l121 -3 11 -45 c10 -39 9 -54 -5 -93 -10 -25 -19 -47 -20 -49 -2 -3 -28 -9 -46 -11 -5 -1 -8 -8 -8 -16 0 -13 27 -15 180 -15 147 0 180 3 180 14 0 8 -10 16 -22 20 -19 4 -30 25 -58 107 -19 57 -43 110 -52 119 -19 18 -19 16 -458 1525 -171 589 -325 1117 -342 1174 -30 102 -30 103 -11 122 12 12 40 22 74 26 96 10 99 24 30 161 l-48 97 20 27 c23 30 18 69 -12 95 -14 12 -17 22 -11 37 12 32 6 132 -9 150 -8 9 -22 16 -33 16 -10 0 -16 5 -13 10 3 6 33 10 66 10 56 0 59 1 59 25 0 14 7 28 15 31 8 4 12 10 9 15 -3 5 1 10 8 10 20 2 141 7 261 12 63 2 113 9 119 15 7 7 26 12 44 12 100 0 274 50 419 120 143 69 247 147 414 312 80 80 177 166 216 191 l70 47 92 0 c50 0 95 -4 98 -10 9 -15 550 -13 577 1 32 17 48 -8 98 -153 24 -68 48 -128 54 -135 6 -6 49 -14 96 -18 70 -6 88 -4 98 8 7 8 24 79 38 158 38 220 35 212 91 227 95 26 100 26 125 1 13 -13 50 -82 82 -154 32 -71 63 -135 69 -142 16 -16 202 -30 211 -15 3 5 24 107 45 226 l39 217 -29 32 -30 32 66 9 c54 8 65 12 65 28 0 22 9 21 233 -3 93 -11 97 -12 97 -35 0 -13 4 -24 9 -24 10 0 21 131 21 251 0 92 -8 108 -58 124 -17 5 -20 10 -12 20 8 10 1 14 -30 19 -22 3 -40 10 -40 15 0 11 25 21 51 21 30 0 22 20 -11 27 -37 7 -39 21 -2 29 45 10 48 12 25 19 -28 9 -30 25 -3 25 11 0 20 6 20 13 0 8 14 14 33 15 17 1 109 6 202 12 94 5 505 14 915 20 1017 14 1051 16 1058 54 4 17 0 18 -39 11 -57 -10 -128 -9 -208 4 -36 5 -173 15 -305 21 -542 25 -565 29 -161 24 215 -2 498 -6 630 -9 236 -5 239 -5 170 11 -38 8 -73 20 -76 25 -3 6 -10 9 -15 7 -5 -1 -38 5 -74 14 -117 30 -204 48 -235 49 -16 1 -23 3 -14 6 8 2 159 -12 335 -31 175 -20 342 -38 369 -41 l50 -5 -34 15 c-39 18 -519 82 -1586 214 -1128 140 -1015 123 -1015 152 0 10 -7 19 -15 19 -8 0 -22 11 -31 25 -18 27 -60 34 -92 14 -13 -8 -73 -4 -237 15 -313 37 -357 45 -373 68 -19 27 -73 21 -87 -9 -5 -13 -18 -23 -28 -23 -10 0 -20 -6 -23 -14 -4 -11 -25 -13 -104 -9 -54 3 -107 3 -117 -1 -16 -7 -15 -9 10 -22 37 -20 34 -35 -5 -29 -18 2 -62 7 -98 10 -36 3 -90 10 -121 16 -31 5 -64 6 -74 2 -14 -5 -16 -3 -10 7 5 7 4 11 -1 7 -5 -3 -56 1 -114 9 -58 7 -145 19 -195 25 -49 6 -93 13 -97 15 -3 2 -33 6 -65 9 -32 3 -87 9 -123 15 -82 12 -271 37 -420 55 -118 14 -385 49 -640 85 -80 12 -161 23 -180 25 -113 12 -147 17 -160 20 -8 2 -40 7 -70 10 -126 13 -165 17 -171 21 -3 1 -30 4 -60 5 -30 1 -73 8 -97 15 -50 16 -112 18 -112 4 0 -5 0 -13 0 -17 -1 -4 34 -13 77 -20 226 -34 430 -69 723 -123 179 -32 469 -84 645 -115 614 -107 852 -158 1165 -247 201 -58 269 -61 315 -18 14 13 25 29 25 35 0 17 40 57 53 52 7 -2 11 -16 9 -30 -2 -18 2 -29 12 -33 9 -3 16 -11 16 -16 0 -5 9 -23 21 -39 l20 -29 -38 0 c-21 0 -136 5 -256 12 -194 10 -219 14 -228 30 -14 26 -69 25 -76 -2 -3 -11 -12 -20 -19 -20 -8 0 -18 -10 -23 -22 l-9 -23 -273 7 c-151 4 -732 34 -1292 67 -560 34 -1025 61 -1033 61 -8 0 -14 -6 -14 -14 0 -16 -11 -15 435 -46 223 -16 243 -18 115 -14 -85 2 -195 6 -245 9 l-90 4 75 -10 c41 -5 172 -23 290 -39 118 -16 375 -50 570 -75 572 -74 782 -109 1075 -181 144 -35 180 -36 237 -7 15 7 34 26 42 41 29 56 106 103 106 65 0 -10 9 -29 20 -43 23 -30 26 -60 5 -60 -25 0 -31 -31 -34 -157 -2 -113 -1 -123 16 -124 10 -1 -15 -5 -56 -10 -41 -5 -81 -15 -90 -23 -12 -10 -63 -15 -201 -19 -133 -4 -209 -11 -271 -26 -97 -22 -253 -80 -316 -117 -23 -13 -49 -24 -58 -24 -9 0 -14 -4 -11 -8 2 -4 -5 -14 -17 -22 -21 -12 -21 -12 -7 5 14 17 13 17 -10 11 -50 -15 -189 -85 -261 -132 -47 -30 -131 -106 -229 -205 -85 -86 -174 -169 -198 -184 -49 -32 -50 -39 -2 -25 19 5 36 8 38 5 2 -2 -21 -11 -51 -20 -55 -16 -92 -18 -202 -11 -33 2 -127 5 -210 6 -82 1 -142 4 -132 7 11 3 17 14 17 34 0 28 -1 29 -51 29 -36 0 -58 6 -76 20 -22 17 -41 20 -119 20 -87 0 -94 1 -94 20 0 22 -29 60 -45 60 -14 0 -42 -34 -47 -56 -4 -25 -28 -30 -28 -6 0 11 -7 25 -15 32 -8 7 -15 24 -15 37 0 16 -7 27 -19 30 -16 4 -18 11 -14 36 5 36 -12 324 -30 490 -10 95 -15 111 -36 128 -22 18 -47 19 -537 19 -283 0 -515 1 -515 3 -1 1 -4 49 -8 107 l-6 105 -265 0 -265 0 -3 -107 -3 -108 -518 0 c-479 0 -520 -1 -540 -17 -17 -15 -23 -36 -31 -113 -33 -312 -43 -517 -27 -527 7 -4 2 -9 -13 -13 -16 -4 -27 -15 -31 -30 -16 -71 -49 -118 -49 -70 0 21 -33 60 -51 60 -16 0 -48 -42 -49 -62 0 -16 -11 -18 -94 -18 -77 0 -98 -3 -118 -20 -18 -14 -44 -20 -94 -22 l-69 -3 3 -32 4 -33 -119 -1 c-65 -1 -137 -1 -160 1 -23 1 -57 -4 -76 -11 -29 -10 -39 -9 -67 5 -38 18 -43 20 -36 7 4 -5 -4 -7 -16 -3 -19 5 -20 6 -4 12 14 4 6 14 -38 44 -31 21 -106 92 -167 157 -120 128 -200 196 -300 257 -73 44 -227 112 -254 112 -10 0 -52 16 -94 36 -206 99 -314 124 -564 131 -140 4 -192 9 -202 19 -8 8 -42 17 -77 21 -35 4 -56 9 -47 10 14 3 15 20 12 131 -4 110 -7 129 -24 144 -20 17 -20 17 6 57 14 22 25 47 25 56 0 8 9 15 20 15 34 0 76 -27 115 -74 20 -24 50 -49 67 -55 50 -18 132 -13 236 13 298 76 503 109 1322 211 245 31 508 65 585 75 l140 19 -190 -4 -190 -4 265 19 c146 10 283 19 305 19 43 1 71 13 62 27 -3 5 -100 4 -224 -3 -422 -24 -1112 -64 -1528 -89 -231 -13 -549 -27 -707 -31 l-288 -6 0 21 c0 15 -6 22 -19 22 -10 0 -21 9 -24 20 -7 27 -62 28 -76 2 -9 -17 -36 -20 -281 -32 -289 -14 -312 -12 -271 29 12 12 21 26 21 31 0 6 4 10 9 10 5 0 11 12 14 28 4 26 4 26 21 -14 33 -77 92 -82 286 -23 303 91 552 147 1156 259 181 33 475 89 654 124 179 35 418 79 533 97 179 29 207 36 207 51 0 24 -56 24 -130 -1z m-2980 -404 l0 -54 -66 -12 c-49 -9 -69 -9 -80 -1 -17 15 -74 3 -92 -19 -10 -12 -15 -13 -18 -3 -3 7 -24 12 -49 12 -44 0 -55 10 -55 51 0 11 -7 19 -17 20 -75 3 228 54 340 58 l37 1 0 -53z m10283 32 c95 -11 179 -25 187 -30 13 -7 12 -8 -2 -9 -15 0 -18 -9 -18 -50 0 -48 -12 -66 -24 -35 -6 18 -76 21 -93 4 -7 -7 -15 -6 -25 4 -20 20 -76 31 -92 18 -10 -8 -34 -8 -90 1 -71 11 -77 14 -72 32 3 12 6 36 6 54 0 39 -7 39 223 11z m-10183 -179 c8 -5 12 -11 9 -14 -7 -8 -49 5 -49 15 0 12 21 11 40 -1z m9904 1 c7 -10 -43 -25 -52 -16 -7 7 18 25 35 25 6 0 14 -4 17 -9z m-7047 -18 c-20 -2 -52 -2 -70 0 -17 2 0 4 38 4 39 0 53 -2 32 -4z m-189 -10 c-10 -2 -28 -2 -40 0 -13 2 -5 4 17 4 22 1 32 -1 23 -4z m4660 0 c-15 -2 -42 -2 -60 0 -18 2 -6 4 27 4 33 0 48 -2 33 -4z m165 -10 c-13 -2 -33 -2 -45 0 -13 2 -3 4 22 4 25 0 35 -2 23 -4z m3124 -59 c24 -41 30 -89 13 -99 -5 -3 -13 12 -16 36 -5 30 -14 45 -35 58 -22 13 -25 20 -17 34 14 25 29 17 55 -29z m-11287 16 c0 -5 -5 -10 -11 -10 -5 0 -7 5 -4 10 3 6 8 10 11 10 2 0 4 -4 4 -10z m-1347 -7 c-7 -2 -21 -2 -30 0 -10 3 -4 5 12 5 17 0 24 -2 18 -5z m2592 -46 c0 -47 -2 -53 -25 -59 -13 -4 -29 -3 -34 2 -16 16 -76 12 -82 -5 -8 -19 -24 -20 -24 -1 0 10 -11 12 -47 8 -27 -3 -51 -10 -55 -16 -6 -8 -11 -7 -17 3 -6 10 -21 12 -50 8 l-41 -5 0 48 0 48 83 6 c113 9 172 12 237 14 l55 2 0 -53z m9043 37 l62 -6 0 -47 0 -47 -35 4 c-21 3 -35 0 -35 -7 0 -6 -7 -11 -15 -11 -8 0 -15 5 -15 10 0 6 -20 10 -45 10 -25 0 -45 -4 -45 -10 0 -5 -7 -10 -15 -10 -8 0 -15 7 -15 15 0 18 -70 21 -86 5 -6 -6 -17 -8 -25 -5 -10 4 -13 20 -11 61 l4 56 106 -6 c59 -4 135 -9 170 -12z m-11725 -1 c-7 -2 -19 -2 -25 0 -7 3 -2 5 12 5 14 0 19 -2 13 -5z m-70 -10 c-7 -2 -19 -2 -25 0 -7 3 -2 5 12 5 14 0 19 -2 13 -5z m2094 1 c-3 -3 -12 -4 -19 -1 -8 3 -5 6 6 6 11 1 17 -2 13 -5z m-2149 -11 c-10 -2 -26 -2 -35 0 -10 3 -2 5 17 5 19 0 27 -2 18 -5z m12755 -20 c-7 -2 -21 -2 -30 0 -10 3 -4 5 12 5 17 0 24 -2 18 -5z m1914 1 c-3 -3 -12 -4 -19 -1 -8 3 -5 6 6 6 11 1 17 -2 13 -5z m-14559 -121 c-21 -2 -55 -2 -75 0 -21 2 -4 4 37 4 41 0 58 -2 38 -4z m109 1 c-3 -3 -12 -4 -19 -1 -8 3 -5 6 6 6 11 1 17 -2 13 -5z m2668 -5 c12 -19 -3 -21 -47 -6 l-43 15 42 1 c23 1 45 -4 48 -10z m8655 2 c-8 -5 -28 -11 -43 -15 -25 -6 -27 -5 -15 8 7 8 27 15 43 15 21 0 26 -2 15 -8z m-8595 -96 c0 -6 -52 -11 -130 -12 -118 -3 -128 -1 -110 12 15 12 43 15 130 13 65 -2 110 -7 110 -13z m8699 9 c42 -16 5 -24 -108 -24 -114 0 -147 6 -129 24 8 8 216 8 237 0z m-9146 -21 c2 -9 -7 -13 -27 -13 -16 0 -33 -4 -36 -10 -3 -5 -14 -10 -23 -9 -13 0 -12 3 6 11 12 6 22 17 22 25 0 18 52 14 58 -4z m9402 2 c0 -9 10 -20 23 -25 33 -13 9 -12 -32 2 -47 16 -48 17 -31 28 22 14 40 12 40 -5z m-9710 -70 c0 -8 -9 -15 -20 -15 -22 0 -27 15 -7 23 21 9 27 7 27 -8z m9766 -6 c3 -5 -1 -9 -8 -9 -23 0 -58 12 -58 19 0 10 59 1 66 -10z m234 0 c0 -5 -7 -9 -15 -9 -15 0 -20 12 -9 23 8 8 24 -1 24 -14z m-9760 1 c-20 -13 -63 -13 -55 0 3 6 21 10 38 10 24 0 28 -3 17 -10z m-680 -15 c0 -16 -34 -20 -90 -9 -44 9 -18 24 43 24 35 0 47 -4 47 -15z m10828 3 c-3 -7 -13 -13 -23 -13 -10 0 -20 6 -22 13 -3 7 5 12 22 12 17 0 25 -5 23 -12z m152 -4 c0 -2 -18 -4 -41 -4 -22 0 -38 4 -35 8 5 8 76 4 76 -4z m-793 -34 c13 0 23 -5 23 -10 0 -6 -11 -8 -27 -4 -36 9 -43 13 -43 27 0 8 3 8 12 -1 7 -7 22 -12 35 -12z m244 -3 c-13 -13 -26 -3 -16 12 3 6 11 8 17 5 6 -4 6 -10 -1 -17z m-9746 4 c-12 -10 -65 -24 -65 -16 0 7 40 24 60 24 8 1 10 -2 5 -8z m-681 -16 c4 -12 -4 -15 -44 -15 -53 0 -69 16 -22 23 52 8 60 7 66 -8z m10816 -1 c0 -9 -7 -14 -17 -12 -25 5 -28 28 -4 28 12 0 21 -6 21 -16z m155 -4 c3 -5 -3 -10 -14 -10 -12 0 -21 5 -21 10 0 6 6 10 14 10 8 0 18 -4 21 -10z m-5 -34 c0 -2 -7 -6 -15 -10 -8 -3 -15 -1 -15 4 0 6 7 10 15 10 8 0 15 -2 15 -4z m-2430 -320 c0 -2 -8 -10 -17 -17 -16 -13 -17 -12 -4 4 13 16 21 21 21 13z m-580 -486 c-8 -5 -19 -10 -25 -10 -5 0 -3 5 5 10 8 5 20 10 25 10 6 0 3 -5 -5 -10z m-3781 -318 c-5 -2 -6 -9 -3 -14 4 -7 2 -8 -4 -4 -7 4 -12 19 -12 34 0 25 1 25 14 6 8 -10 10 -21 5 -22z m1979 -352 c-60 -10 -68 -16 -68 -46 0 -17 5 -24 20 -24 24 0 24 3 0 -45 -20 -38 -20 -39 -72 -36 -88 4 -88 4 -88 77 l0 64 33 1 c17 1 39 1 49 0 9 -1 19 3 23 9 3 5 37 9 78 9 70 -1 71 -2 25 -9z m264 -2 c-9 -9 -15 -9 -24 0 -9 9 -7 12 12 12 19 0 21 -3 12 -12z m763 -158 c-3 -5 -11 -10 -16 -10 -6 0 -7 5 -4 10 3 6 11 10 16 10 6 0 7 -4 4 -10z m-1145 -145 c0 -8 -4 -15 -10 -15 -5 0 -10 7 -10 15 0 8 5 15 10 15 6 0 10 -7 10 -15z m-73 -17 c-3 -8 -6 -5 -6 6 -1 11 2 17 5 13 3 -3 4 -12 1 -19z m-133 -60 c-3 -4 -9 -8 -15 -8 -5 0 -9 4 -9 8 0 5 7 9 15 9 8 0 12 -4 9 -9z m-2101 -126 c-3 -12 -9 -22 -14 -22 -12 0 -11 7 2 32 13 25 20 19 12 -10z m2060 -986 c108 -64 197 -121 197 -126 0 -6 -81 -10 -205 -10 l-205 0 0 131 c0 71 3 128 8 126 4 -2 96 -57 205 -121z m-735 64 c25 0 27 -20 2 -28 -7 -3 -10 0 -7 5 4 6 -7 13 -24 17 -18 3 -28 10 -24 17 5 8 10 8 18 0 6 -6 22 -11 35 -11z m63 7 c-13 -16 -5 -27 20 -27 24 0 35 20 18 31 -11 7 -11 9 2 9 21 0 31 -24 16 -39 -14 -14 -64 -14 -72 -1 -9 15 1 40 16 40 8 0 9 -4 0 -13z m129 -4 c22 -16 23 -16 17 0 -4 11 -1 17 7 17 9 0 12 -8 8 -25 -5 -29 -14 -31 -32 -10 -7 8 -17 15 -22 15 -6 0 -8 -7 -4 -15 3 -8 0 -15 -7 -15 -7 0 -12 11 -12 25 0 29 11 31 45 8z m93 5 c3 -10 8 -10 21 1 9 8 19 11 23 8 3 -4 -2 -9 -11 -13 -9 -3 -16 -12 -16 -20 0 -21 -13 -16 -33 11 -15 20 -15 25 -3 25 8 0 16 -6 19 -12z m-318 -36 c-3 -3 -11 0 -18 7 -9 10 -8 11 6 5 10 -3 15 -9 12 -12z m-185 -134 c0 -28 -4 -38 -16 -38 -12 0 -15 6 -10 23 3 12 6 36 6 52 0 23 3 27 10 15 5 -8 10 -32 10 -52z m-155 -102 c0 -37 -28 -57 -50 -35 -23 23 -3 72 28 67 17 -2 22 -10 22 -32z m1110 -56 c4 -6 10 -8 14 -5 5 2 8 -8 7 -24 -1 -23 -6 -28 -24 -28 -17 0 -20 3 -13 10 16 16 13 47 -4 47 -17 0 -36 -39 -27 -55 3 -5 -1 -5 -8 2 -11 10 -10 17 4 37 17 27 40 34 51 16z m-1878 -97 c-3 -10 -5 -4 -5 12 0 17 2 24 5 18 2 -7 2 -21 0 -30z m1861 -33 c-7 -10 -14 -18 -15 -16 -6 6 9 36 18 36 5 0 4 -9 -3 -20z m-526 -175 c1 -5 8 -15 17 -22 13 -10 11 -11 -14 -4 -31 8 -51 46 -20 39 9 -1 16 -7 17 -13z m58 -45 c0 -5 -4 -10 -10 -10 -5 0 -10 5 -10 10 0 6 5 10 10 10 6 0 10 -4 10 -10z m-54 -27 c32 -35 20 -46 -51 -44 -66 1 -85 9 -63 25 8 6 17 19 21 29 10 27 63 22 93 -10z m14 -78 c0 -17 -36 -39 -50 -30 -6 3 -10 2 -10 -4 0 -6 -8 -8 -17 -5 -39 13 -63 28 -63 41 0 10 18 13 70 13 55 0 70 -3 70 -15z"/>
<path d="M8358 12233 c12 -2 32 -2 45 0 12 2 2 4 -23 4 -25 0 -35 -2 -22 -4z"/>
</g>
</svg>