<svg version="1.1" id="Layer_1" xmlns="http://www.w3.org/2000/svg" xmlns:xlink="http://www.w3.org/1999/xlink" x="0px" y="0px"
	 width="100%" viewBox="0 0 1024 560" enable-background="new 0 0 1024 560" xml:space="preserve">
<path fill="#000000" opacity="1.000000" stroke="none" 
	d="
M360.286438,388.377136 
	C370.509552,363.231934 380.569580,338.434296 390.497345,313.962616 
	C389.680267,313.103882 389.488251,312.708344 389.226562,312.655029 
	C380.396729,310.856354 379.838501,309.875122 385.099182,302.756744 
	C389.114288,297.323639 388.948914,291.274292 388.551544,285.206360 
	C388.302856,281.408386 382.173157,277.210907 377.885681,277.002594 
	C363.460968,276.301819 348.973999,276.496796 334.727356,273.417328 
	C320.138855,270.264008 306.811707,264.376099 295.269012,254.962189 
	C280.438538,242.866852 263.702393,236.897369 244.556732,237.225494 
	C228.256912,237.504852 211.971786,238.815735 195.654816,238.003006 
	C193.179688,237.879730 190.898712,237.753754 188.588654,236.204514 
	C185.052002,233.832672 178.970947,235.605301 175.134033,239.786240 
	C172.096375,243.096207 169.357742,246.679306 166.449738,250.110092 
	C165.045090,251.767288 163.628433,253.586960 161.056213,252.966309 
	C158.411270,252.328140 158.858871,249.976852 158.569244,248.082703 
	C157.915482,243.806763 157.157990,239.539993 156.707687,235.241730 
	C156.337677,231.709778 154.875702,228.910461 152.033127,226.455627 
	C146.478043,230.593628 140.896454,226.751694 135.289505,226.310074 
	C132.410843,226.083344 131.417786,223.882431 131.658508,220.936798 
	C132.025864,216.441605 131.114227,212.080765 134.903152,207.969620 
	C137.319351,205.347946 135.985107,200.474518 135.482330,196.787231 
	C134.568604,190.086166 137.514496,186.261932 143.135559,183.608337 
	C146.162552,182.179352 148.221786,179.655701 150.715103,176.893143 
	C143.265793,171.385818 137.868317,178.775330 131.802689,178.896927 
	C130.482056,177.061325 131.792633,175.910614 132.537994,174.726746 
	C138.920609,164.589294 145.868225,154.784775 149.281113,143.036636 
	C150.358292,139.328613 159.633255,136.251862 163.267273,137.999863 
	C163.949020,138.327774 164.820053,139.055527 164.911285,139.697250 
	C166.052673,147.723785 170.574982,154.629074 172.350327,162.448669 
	C173.173523,166.074509 172.886520,168.642258 169.238281,170.833298 
	C164.766800,173.518723 165.588394,180.733231 170.570297,182.315918 
	C174.190201,183.465927 177.033157,185.689911 179.947601,187.678085 
	C183.491394,190.095612 182.812759,194.555878 183.068695,198.355682 
	C183.118271,199.091980 182.388123,199.847305 182.241318,200.635529 
	C180.925415,207.700882 182.249664,209.466309 189.443741,209.606033 
	C198.773087,209.787247 208.233459,208.786972 217.410614,210.004730 
	C233.374374,212.123016 249.500839,211.143875 265.424500,213.547226 
	C274.872345,214.973175 284.342377,212.746994 293.817566,212.435165 
	C308.954346,211.936981 324.061859,210.612549 339.192719,209.857925 
	C367.790131,208.431702 396.389221,207.050491 424.940887,204.857864 
	C430.406647,204.438110 435.688141,202.836761 441.209717,202.441223 
	C445.011963,202.168839 447.616516,198.093018 451.836212,197.655060 
	C453.231506,197.510254 453.066864,195.077698 453.003174,193.628067 
	C452.844696,190.020020 454.742218,188.542160 458.048218,188.193146 
	C464.699615,187.490921 471.347107,187.599304 477.998657,188.147964 
	C480.888336,188.386337 482.324615,189.598145 482.505737,192.841568 
	C482.749298,197.203888 485.241486,198.771622 489.326172,197.009033 
	C492.459625,195.656921 494.721405,196.105988 496.964905,198.305084 
	C497.984070,199.304123 499.214691,199.698441 500.606873,199.626831 
	C510.082184,199.139420 519.556641,198.636139 529.032288,198.155045 
	C532.939880,197.956665 535.070312,196.229614 535.275330,192.030792 
	C535.440002,188.657318 535.612671,185.363785 538.959351,182.779449 
	C541.168030,181.073792 540.075562,177.460083 540.235413,174.663666 
	C540.377747,172.172546 540.754089,169.689941 540.801025,167.199310 
	C540.883057,162.853897 540.974609,158.666061 546.847107,158.197861 
	C547.624451,158.135880 548.245239,157.341171 548.342773,156.104568 
	C546.539795,154.285065 544.532837,154.882278 542.669739,156.119247 
	C540.026123,157.874405 538.082031,157.457993 536.475159,154.719971 
	C534.328552,151.062469 531.292358,150.128754 526.899109,149.349960 
	C517.648926,147.710175 509.558014,149.891479 501.151215,152.837708 
	C493.585541,155.489166 485.734802,154.866196 477.979889,153.084656 
	C455.254730,147.863968 432.164551,144.981369 409.042236,142.264954 
	C385.102356,139.452484 361.188416,136.419861 337.251099,133.585129 
	C329.493317,132.666428 321.696991,132.074234 313.919617,131.319199 
	C312.175262,131.149857 310.137024,131.683914 309.091797,129.287231 
	C310.744781,126.913811 313.296234,127.815300 315.388672,127.946220 
	C330.839783,128.912903 346.279694,130.057449 361.724762,131.121872 
	C379.491974,132.346298 397.261505,133.536896 415.028900,134.758331 
	C442.927979,136.676239 470.824921,138.624969 498.725403,140.522293 
	C506.613037,141.058670 514.429016,141.535660 522.380127,140.068817 
	C527.859619,139.057938 534.011719,141.905685 538.859619,136.945602 
	C539.365051,136.428497 540.880737,136.457718 541.721802,136.776627 
	C552.903320,141.016724 564.744324,139.337875 576.250488,140.524414 
	C582.732361,141.192871 589.423950,143.200775 595.998230,140.420822 
	C596.599731,140.166443 597.954529,140.497498 598.294312,141.003418 
	C602.073975,146.631012 608.167175,145.998962 613.607483,146.425903 
	C634.175110,148.039978 654.773010,149.262207 675.351807,150.739853 
	C696.257263,152.240982 717.150574,153.911667 738.054810,155.430374 
	C753.987427,156.587921 769.932800,157.570450 785.865112,158.731644 
	C797.810974,159.602310 809.745544,160.627853 821.683777,161.601746 
	C822.812561,161.693832 824.054199,161.590515 824.993408,163.114410 
	C824.579041,166.609421 821.988464,167.746658 818.776428,167.776260 
	C815.120605,167.809937 811.461670,167.377960 807.804138,167.379639 
	C768.976074,167.397430 730.146606,167.291031 691.320740,167.609955 
	C678.696350,167.713654 666.032898,168.675446 653.546753,170.642548 
	C644.196655,172.115601 636.076904,170.025146 628.588196,164.604156 
	C621.554260,159.512329 613.928955,156.245605 605.067078,155.863586 
	C602.598083,155.757141 600.524719,156.168350 599.365906,157.887161 
	C597.019958,161.366638 594.482483,162.071320 590.713806,159.368713 
	C595.740723,166.004562 592.460449,172.894882 591.960388,179.334610 
	C591.530273,184.873291 595.737122,188.336060 596.054810,193.306122 
	C596.157043,194.905182 598.525452,194.648331 599.978699,194.566971 
	C620.919678,193.394684 641.857727,192.170807 662.798096,190.986954 
	C666.546448,190.775040 670.320374,190.350159 674.037354,191.061203 
	C674.403320,195.210480 671.635071,195.646179 669.240723,195.929337 
	C653.382446,197.804871 637.508057,199.545609 621.638367,201.324341 
	C618.050171,201.726501 614.409058,201.865143 610.677246,203.443741 
	C618.291077,214.590973 618.495789,226.961975 617.657532,239.468155 
	C617.481934,242.087204 618.530457,243.516693 620.766174,243.598953 
	C626.423279,243.807129 631.574158,246.990601 637.413574,246.155655 
	C639.324158,245.882462 641.486450,246.085495 642.488159,248.416199 
	C642.931458,249.447510 643.883118,249.901611 644.913208,249.886429 
	C658.498291,249.686386 671.984497,253.393845 685.633850,250.838959 
	C696.021667,248.894547 705.313782,244.496765 713.460815,237.925949 
	C731.840271,223.102325 752.550354,216.128418 776.307800,216.353821 
	C795.249756,216.533508 814.220337,215.490097 833.190674,215.617126 
	C837.044312,215.642929 838.746460,212.998001 837.416992,208.776566 
	C835.498230,202.683807 834.568420,196.879303 840.500000,191.393387 
	C828.575195,188.956833 817.065796,188.868423 806.117798,185.873489 
	C806.109741,183.451172 807.777344,183.814499 808.952942,183.696426 
	C819.379944,182.649033 829.813599,181.667236 840.242554,180.638672 
	C844.042969,180.263840 847.765137,179.852600 850.596741,176.662766 
	C852.087708,174.983139 854.853699,175.947754 856.337097,175.389206 
	C864.122742,172.457626 869.983032,179.119034 876.918457,178.787598 
	C887.217102,178.295441 897.475952,177.019363 907.766174,176.278275 
	C912.227112,175.957016 916.765930,174.834595 921.349243,176.866379 
	C904.780579,180.348083 888.466431,184.405289 871.441895,188.116592 
	C872.388428,189.166336 872.628845,189.679825 873.004517,189.813599 
	C883.243591,193.459198 883.604065,198.406967 881.000488,209.888153 
	C880.602600,211.642715 879.849426,213.369827 881.498596,214.559418 
	C888.084351,219.310059 884.668579,225.947876 884.909424,231.882751 
	C884.941528,232.672821 884.426086,233.470490 884.271912,234.285004 
	C882.895142,241.556107 880.573975,242.794617 873.606628,239.694016 
	C871.812378,238.895538 870.162476,237.688660 868.598206,236.473679 
	C864.318298,233.149460 862.794250,233.617325 861.783630,239.070740 
	C860.906250,243.805191 860.468201,248.619904 859.649658,253.367004 
	C859.337708,255.176285 859.749939,257.643646 856.927612,258.072479 
	C854.375000,258.460358 852.387695,257.536072 850.865906,255.454544 
	C848.505737,252.226166 846.158875,248.984863 843.695679,245.835617 
	C839.440063,240.394806 836.209290,239.611511 829.467224,241.868744 
	C827.942017,242.379364 826.188293,242.261734 824.535583,242.328674 
	C807.714844,243.010010 790.942810,241.344208 774.135193,241.270538 
	C757.280884,241.196655 742.598083,246.776276 729.468994,257.258240 
	C714.082581,269.542297 696.502258,276.134064 676.724670,277.474243 
	C667.250000,278.116302 657.820068,278.272583 648.353210,278.261261 
	C643.484924,278.255463 638.412292,283.114471 638.272034,287.953186 
	C638.087708,294.314819 638.835388,300.357849 642.998962,305.754089 
	C646.688477,310.536072 645.938599,312.215027 640.002319,313.264740 
	C635.378235,314.082458 636.895691,316.791870 637.818909,319.160278 
	C642.717651,331.726959 647.719421,344.253784 652.736328,356.774017 
	C664.813660,386.914642 676.795105,417.094879 689.111511,447.137665 
	C691.784912,453.658783 695.700867,459.670502 699.377930,466.539642 
	C693.963623,467.700409 688.584900,467.539551 682.482117,466.643402 
	C686.675415,460.258606 683.448608,454.656158 681.518433,449.714447 
	C665.767395,409.386963 649.540283,369.245300 633.442932,329.053162 
	C630.471130,321.632935 628.342041,313.669250 624.161926,306.997864 
	C620.127563,300.559052 614.889099,294.040588 605.698975,294.271240 
	C602.809143,294.343750 601.169983,293.002350 600.038269,290.351898 
	C597.030579,283.307678 586.114746,280.665192 580.224182,285.394836 
	C578.757996,286.572083 578.614746,288.193665 578.461853,289.873840 
	C577.910156,295.937927 575.666138,298.198944 569.639221,298.172394 
	C562.346191,298.140259 555.076050,298.768951 547.753479,297.384766 
	C540.692993,296.050171 540.116699,298.217926 537.676941,304.518036 
	C532.929565,316.777222 537.218628,328.910034 536.462219,341.044220 
	C536.321533,343.301239 536.600525,345.983734 537.720825,347.847900 
	C541.640625,354.370392 544.237610,361.285858 545.458313,368.763733 
	C545.632385,369.830322 546.374268,370.593811 547.338806,370.944061 
	C552.426392,372.791443 555.390137,376.643677 557.424316,381.416138 
	C558.487671,383.910736 560.720276,383.824432 562.917175,383.935577 
	C569.000732,384.243347 570.020142,385.326874 570.131348,391.488190 
	C570.161438,393.153259 570.185059,394.826416 570.061340,396.484619 
	C569.789612,400.127197 568.224548,402.607300 564.114441,402.158325 
	C560.135254,401.723633 557.623718,403.148987 555.867554,406.902374 
	C553.871582,411.168243 550.425171,413.940063 545.438110,414.457153 
	C542.448486,414.767090 541.101318,416.780273 541.220215,419.674622 
	C541.812683,434.094635 541.536621,448.576782 544.928223,462.782562 
	C545.570740,465.473816 547.460083,466.888550 549.503113,469.351837 
	C542.450806,472.148071 535.944458,470.961456 528.398010,469.724121 
	C535.612305,463.905640 534.470581,456.235077 534.487061,449.292664 
	C534.511108,439.163971 533.338623,429.032318 532.674011,418.902100 
	C532.586914,417.575745 532.694763,416.039978 530.827026,415.906464 
	C529.366272,415.802002 528.277710,416.579987 527.663269,417.916992 
	C527.246826,418.823212 526.966003,419.794556 526.517456,420.682739 
	C523.122742,427.405182 519.077271,432.124969 510.118988,431.633820 
	C495.401917,430.826996 496.337280,430.075134 495.537262,446.177704 
	C495.249390,451.972717 494.602783,458.624084 500.358521,463.049194 
	C496.409149,465.525360 488.176941,465.700348 483.493866,463.632233 
	C488.050140,454.884521 488.701477,445.429016 488.612427,435.844971 
	C488.587585,433.170807 486.781647,431.990295 484.408142,431.767181 
	C481.596527,431.502930 478.760529,431.482910 475.933868,431.397736 
	C472.385437,431.290833 468.759552,432.106293 466.553894,427.721222 
	C465.494812,425.615601 462.390259,426.080688 460.055847,426.083313 
	C447.224060,426.097717 434.392273,426.124756 421.560486,426.145294 
	C413.948212,426.157471 413.193481,425.269257 412.881897,417.495758 
	C412.559174,409.445068 412.935364,401.516846 415.633514,393.838287 
	C416.961334,390.059479 416.524506,386.414337 415.414917,382.598999 
	C412.813629,373.654541 415.119873,367.073151 422.675598,365.316742 
	C427.530029,364.188263 432.431061,362.144409 437.707397,362.645203 
	C440.745056,362.933502 443.728699,362.688538 445.009644,358.949066 
	C445.730377,356.845032 447.921783,356.806885 449.707123,356.898865 
	C453.261627,357.082001 455.912811,355.673401 457.629517,352.711365 
	C460.505188,347.749634 466.849060,347.039398 470.076508,342.316681 
	C470.842224,341.196289 474.155426,341.764801 476.301849,341.650818 
	C480.787476,341.412720 485.276154,341.229675 489.764252,341.039734 
	C491.948761,340.947205 493.228912,339.841248 493.292633,337.657776 
	C493.354095,335.552124 491.596619,335.672180 490.168854,335.223724 
	C486.600952,334.103241 482.965363,334.105255 479.293915,334.080475 
	C475.062775,334.051910 472.586456,332.507294 472.471222,327.564392 
	C472.297119,320.094177 471.580872,312.641052 471.600098,305.144775 
	C471.615295,299.223907 464.567230,294.198242 458.737457,295.645935 
	C456.798706,296.127411 454.907440,296.855438 452.946381,297.180298 
	C448.608643,297.898834 447.102539,300.666687 447.373230,304.658661 
	C447.565796,307.498688 447.895447,310.423523 443.807312,310.153076 
	C439.979706,309.899872 439.459473,307.275726 440.067780,304.014771 
	C440.585419,301.239899 440.293732,298.695587 437.299072,297.246857 
	C433.810944,295.559326 436.310883,292.444824 435.857483,290.059601 
	C435.349182,287.385406 435.741180,284.382751 432.227844,283.944214 
	C428.945892,283.534515 427.686249,286.019318 426.887329,288.772675 
	C425.959961,291.968842 423.882904,293.485138 420.493286,292.760895 
	C419.162537,292.476562 417.749969,292.143341 416.592438,292.901581 
	C410.971344,296.583588 404.570740,299.808014 401.901794,306.324921 
	C382.400452,353.942657 363.021149,401.611572 343.948822,449.402161 
	C341.867767,454.616791 338.858734,460.305603 341.704620,466.987335 
	C336.462616,469.229553 331.192596,467.749146 325.348053,467.609009 
	C340.483337,442.262207 348.807953,414.840271 360.286438,388.377136 
M294.631348,223.781342 
	C301.467773,227.340942 307.247772,232.430679 313.548248,236.764297 
	C326.878662,245.933304 341.155212,251.565186 357.968170,249.225098 
	C368.938354,247.698242 380.024261,249.195114 391.108093,245.345810 
	C396.936615,243.321625 404.131317,241.732849 411.028534,242.552170 
	C412.693146,242.749908 414.534790,242.260834 415.312805,240.550903 
	C419.125763,232.171005 425.821045,224.823914 424.307922,214.364639 
	C422.757965,213.788269 421.245575,215.039246 419.653381,215.783157 
	C414.910980,217.998856 409.940033,219.670319 404.711182,219.067169 
	C383.177368,216.583313 361.564056,216.248337 339.933319,216.353561 
	C322.123077,216.440186 304.313751,216.719711 286.503937,216.907547 
	C284.472961,216.928970 282.441620,216.910431 279.668335,216.910431 
	C284.949158,219.328766 289.457245,221.393219 294.631348,223.781342 
M570.230591,211.745972 
	C573.352600,211.704712 575.963745,210.312943 578.436951,208.596756 
	C579.546570,207.826828 580.607849,206.886078 580.324829,205.377777 
	C580.039917,203.859192 578.694885,203.240005 577.378845,203.102951 
	C571.479248,202.488586 565.571228,201.690598 559.655884,201.593552 
	C556.303894,201.538574 555.381958,204.631454 557.790710,207.179367 
	C560.905884,210.474518 564.838928,211.993469 570.230591,211.745972 
M519.043396,311.605438 
	C516.671021,312.321289 515.845947,314.478668 515.015808,316.388245 
	C514.260742,318.125153 513.349915,320.988831 515.754211,321.561523 
	C520.097412,322.596130 523.205627,325.365021 527.199768,328.808533 
	C527.722107,321.044617 528.381592,314.516052 524.292236,308.232117 
	C522.382446,309.528656 521.044983,310.436646 519.043396,311.605438 
M550.910217,146.945709 
	C553.574402,149.896866 557.001221,148.978058 560.221924,148.624710 
	C562.037292,148.425552 563.740295,148.184448 565.613281,148.502991 
	C571.024902,149.423340 576.475586,150.142731 581.932007,150.751984 
	C583.447144,150.921143 585.616821,151.305466 586.004333,149.012863 
	C586.428223,146.505249 584.287659,146.144989 582.501892,145.715408 
	C581.700867,145.522736 580.862122,145.413696 580.038330,145.400558 
	C571.564758,145.265625 563.126038,144.713898 554.716431,143.617981 
	C552.819336,143.370758 550.447510,143.085175 550.910217,146.945709 
M502.965790,335.633453 
	C500.323395,337.193512 499.669495,340.243103 501.029694,342.062805 
	C504.749115,347.038666 509.744568,350.664001 516.150574,352.367401 
	C514.164612,346.473114 511.470245,341.133301 507.389893,336.578094 
	C506.469879,335.550995 505.041779,335.410309 502.965790,335.633453 
M393.987732,304.697113 
	C394.389404,303.618408 394.983795,302.425934 393.748444,301.590973 
	C392.606079,300.818878 391.496918,301.428741 390.669556,302.298279 
	C388.902740,304.155243 387.214355,306.086884 385.265839,308.239807 
	C389.840820,311.145203 392.214478,309.455688 393.987732,304.697113 
M634.638794,302.659485 
	C632.573669,301.851105 632.401489,303.295990 632.346741,304.678589 
	C632.126404,310.239807 635.655518,312.227997 641.164001,309.438263 
	C639.112061,307.271393 637.104797,305.151764 634.638794,302.659485 
z"/>
</svg>