<?xml version="1.0" encoding="UTF-8" standalone="no"?>
<!-- Generator: Adobe Illustrator 25.3.1, SVG Export Plug-In . SVG Version: 6.00 Build 0)  -->

<svg
   xmlns:dc="http://purl.org/dc/elements/1.1/"
   xmlns:cc="http://creativecommons.org/ns#"
   xmlns:rdf="http://www.w3.org/1999/02/22-rdf-syntax-ns#"
   xmlns:svg="http://www.w3.org/2000/svg"
   xmlns="http://www.w3.org/2000/svg"
   xmlns:sodipodi="http://sodipodi.sourceforge.net/DTD/sodipodi-0.dtd"
   xmlns:inkscape="http://www.inkscape.org/namespaces/inkscape"
   version="1.1"
   id="Layer_1"
   x="0px"
   y="0px"
   viewBox="0 0 400 230.0611"
   xml:space="preserve"
   sodipodi:docname="freefly_logo.svg"
   width="400"
   height="230.0611"
   inkscape:version="0.92.5 (2060ec1f9f, 2020-04-08)"><metadata
   id="metadata3837"><rdf:RDF><cc:Work
       rdf:about=""><dc:format>image/svg+xml</dc:format><dc:type
         rdf:resource="http://purl.org/dc/dcmitype/StillImage" /><dc:title></dc:title></cc:Work></rdf:RDF></metadata><defs
   id="defs3835" /><sodipodi:namedview
   pagecolor="#ffffff"
   bordercolor="#666666"
   borderopacity="1"
   objecttolerance="10"
   gridtolerance="10"
   guidetolerance="10"
   inkscape:pageopacity="0"
   inkscape:pageshadow="2"
   inkscape:window-width="2560"
   inkscape:window-height="1403"
   id="namedview3833"
   showgrid="false"
   inkscape:zoom="1.5381944"
   inkscape:cx="217.02863"
   inkscape:cy="122.82094"
   inkscape:window-x="0"
   inkscape:window-y="0"
   inkscape:window-maximized="1"
   inkscape:current-layer="Layer_1" />
<style
   type="text/css"
   id="style3802">
	.st0{fill:#B4B4B4;}
</style>
<path
   class="st0"
   d="m 114.42864,53.32649 c 16.22752,13.979788 47.14751,80.86346 53.82217,80.86346 C 148.11719,98.459262 135.79579,65.771239 120.56877,48.406155 116.4982,43.773638 111.57787,41.155854 105.08139,40.237575 58.2354,33.658852 31.673804,26.189262 0,10.30439 c 2.179202,12.431044 44.598251,27.863629 97.8859,35.716979 10.43001,1.535034 12.93815,4.20764 16.54274,7.305121 z"
   id="path3804"
   inkscape:connector-curvature="0"
   style="fill:#b4b4b4;stroke-width:1.37056696" />
<path
   class="st0"
   d="M 153.14716,122.25231 C 139.40037,97.842512 125.681,75.529672 115.27839,63.660566 112.49614,60.494556 109.15196,58.657996 104.69763,58.082359 72.5167,53.943245 49.093715,48.214275 27.452459,39.483764 c 4.070584,8.483809 34.757581,17.21432 70.611611,24.396093 7.05842,1.411684 9.56655,2.878196 12.01988,4.988865 11.08789,9.55284 38.49923,53.383588 43.06321,53.383588 z"
   id="path3806"
   inkscape:connector-curvature="0"
   style="fill:#b4b4b4;stroke-width:1.37056696" />
<path
   class="st0"
   d="m 294.91861,40.237575 c -6.51018,0.918279 -11.43051,3.536063 -15.48738,8.16858 -15.22702,17.365084 -27.54842,50.053107 -47.68204,85.783795 6.67466,0 37.59465,-66.883672 53.82217,-80.86346 3.60459,-3.111186 6.12644,-5.783793 16.54274,-7.318828 C 355.40175,38.154314 397.82079,22.721729 400,10.290685 368.3262,26.189262 341.7646,33.658852 294.91861,40.237575 Z"
   id="path3808"
   inkscape:connector-curvature="0"
   style="fill:#b4b4b4;stroke-width:1.37056696" />
<path
   class="st0"
   d="m 284.72161,63.64686 c -10.40261,11.869122 -24.12198,34.181952 -37.86877,58.59174 4.56398,0 31.97532,-43.830728 43.04951,-53.383586 2.46703,-2.124377 4.97516,-3.577179 12.01986,-4.988862 35.85405,-7.168068 66.54104,-15.898579 70.61163,-24.396094 -21.62756,8.730512 -45.05053,14.459482 -77.24516,18.598594 -4.44064,0.575638 -7.78482,2.412198 -10.56707,5.578208 z"
   id="path3810"
   inkscape:connector-curvature="0"
   style="fill:#b4b4b4;stroke-width:1.37056696" />
<polygon
   class="st0"
   points="195.43,212.65 183.06,212.65 183.06,209 200.87,209 200.87,205.46 175.43,205.46 175.42,205.96 178.19,207.56 178.19,222.34 200.87,222.34 200.87,219.04 183.06,219.04 183.06,215.2 195.43,215.2 "
   id="polygon3812"
   transform="matrix(1.370567,0,0,1.370567,-96.6798,-74.670772)"
   style="fill:#b4b4b4" />
<polygon
   class="st0"
   points="123.21,209 140.25,209 140.25,205.46 115.56,205.46 115.55,205.96 118.34,207.56 118.34,222.34 123.21,222.34 123.21,216.42 135.05,216.42 135.05,213.3 123.21,213.3 "
   id="polygon3814"
   transform="matrix(1.370567,0,0,1.370567,-96.6798,-74.670772)"
   style="fill:#b4b4b4" />
<polygon
   class="st0"
   points="165.5,209 165.5,214.03 155.01,214.05 155.01,214.59 164.97,222.34 171.23,222.34 164.65,216.98 170.2,216.97 170.2,205.46 144.21,205.47 144.21,205.87 146.93,207.56 146.93,222.34 151.79,222.34 151.79,209 "
   id="polygon3816"
   transform="matrix(1.370567,0,0,1.370567,-96.6798,-74.670772)"
   style="fill:#b4b4b4" />
<polygon
   class="st0"
   points="244.95,209 261.99,209 261.99,205.46 237.3,205.46 237.29,205.96 240.07,207.56 240.07,222.34 244.95,222.34 244.95,216.42 256.78,216.42 256.78,213.3 244.95,213.3 "
   id="polygon3818"
   transform="matrix(1.370567,0,0,1.370567,-96.6798,-74.670772)"
   style="fill:#b4b4b4" />
<polygon
   class="st0"
   points="226.64,212.65 214.27,212.65 214.27,209 232.08,209 232.08,205.46 206.64,205.46 206.63,205.96 209.39,207.56 209.39,222.34 232.08,222.34 232.08,219.04 214.27,219.04 214.27,215.2 226.64,215.2 "
   id="polygon3820"
   transform="matrix(1.370567,0,0,1.370567,-96.6798,-74.670772)"
   style="fill:#b4b4b4" />
<polygon
   class="st0"
   points="290.05,216.75 285.09,216.75 285.09,218.76 273.26,218.76 273.26,205.47 265.61,205.47 265.6,205.87 268.44,207.56 268.44,222.34 290.05,222.34 "
   id="polygon3822"
   transform="matrix(1.370567,0,0,1.370567,-96.6798,-74.670772)"
   style="fill:#b4b4b4" />
<polygon
   class="st0"
   points="301.29,222.34 306.69,222.34 306.69,216.62 310.12,216.62 318.07,205.47 312.75,205.47 307.29,213.02 300.63,213.02 295.05,205.47 288.3,205.47 288.31,205.87 291.11,207.56 297.86,216.62 301.29,216.62 "
   id="polygon3824"
   transform="matrix(1.370567,0,0,1.370567,-96.6798,-74.670772)"
   style="fill:#b4b4b4" />
<path
   class="st0"
   d="m 183.69711,144.00321 c -13.95238,-23.62857 -21.44939,-40.66472 -30.28954,-63.594308 -4.16653,-10.813783 -8.84016,-31.084468 -8.84016,-42.007887 0,-9.210211 1.13757,-14.0209 1.75433,-16.611272 0.20558,-0.890869 0.37006,-1.589859 0.37006,-2.028439 0,-1.000515 -1.02792,-1.11016 -1.48022,-1.11016 -2.46702,0 -7.88076,3.303066 -8.82644,13.513792 -1.15128,12.389924 2.90559,30.577349 11.12899,49.902346 13.70567,32.167218 31.02965,57.221178 36.18298,61.935928 z"
   id="path3826"
   inkscape:connector-curvature="0"
   style="fill:#b4b4b4;stroke-width:1.37056696" />
<path
   class="st0"
   d="m 216.30289,144.00321 c 5.15333,-4.71475 22.4636,-29.76871 36.16927,-61.935928 8.2234,-19.324997 12.29398,-37.512422 11.129,-49.902346 -0.94568,-10.210726 -6.35943,-13.513792 -8.82646,-13.513792 -0.43858,0 -1.4802,0.109648 -1.4802,1.11016 0,0.424875 0.16446,1.13757 0.38376,2.028439 0.61674,2.590372 1.75433,7.414768 1.75433,16.611272 0,10.923419 -4.67365,31.180397 -8.84016,42.007887 -8.84015,22.929588 -16.33716,39.965738 -30.28954,63.594308 z"
   id="path3828"
   inkscape:connector-curvature="0"
   style="fill:#b4b4b4;stroke-width:1.37056696" />
<path
   class="st0"
   d="m 200.1165,158.62715 c 1.74063,2.41221 3.45383,4.71477 5.12592,6.86655 15.59706,20.07881 27.24688,25.12249 31.79715,21.40826 5.48228,-4.46804 2.02845,-21.23009 -5.45486,-36.55303 -1.24721,-2.54926 -1.4802,-2.43962 -0.78122,0.20559 4.26247,16.28233 6.31831,30.56366 3.50865,32.68803 -3.34418,2.52184 -15.30923,-6.42796 -30.16618,-30.35806 9.08686,-13.2945 18.54377,-29.56314 26.28749,-47.27086 15.70668,-35.949986 23.36817,-85.578213 7.05842,-105.12249974 -0.60306,-0.712695 -0.74011,-0.630461 -0.60306,0.178175 5.72898,33.04436974 -6.0305,76.75175674 -14.98029,99.42094474 -7.40106,18.72194 -14.84324,33.94893 -21.79202,46.02363 -6.94878,-12.08841 -14.39095,-27.30169 -21.79202,-46.02363 -8.96351,-22.669188 -20.70926,-66.376575 -14.98029,-99.42094474 0.13707,-0.808636 0,-0.904575 -0.60304,-0.178175 C 146.4314,20.035417 154.09284,69.649951 169.79956,105.61363 c 7.73,17.70772 17.1869,33.97636 26.28746,47.27086 -14.85694,23.9438 -26.822,32.8799 -30.16618,30.35806 -2.82336,-2.12437 -0.75381,-16.4057 3.50866,-32.68803 0.69899,-2.64521 0.4523,-2.75485 -0.78122,-0.20559 -7.4833,15.32294 -10.92343,32.08499 -5.45486,36.55303 4.55029,3.71423 16.20011,-1.31574 31.79716,-21.40826 1.65838,-2.15178 3.3853,-4.45434 5.12592,-6.86655 z"
   id="path3830"
   inkscape:connector-curvature="0"
   style="fill:#b4b4b4;stroke-width:1.37056696" />
</svg>