<?xml version="1.0" encoding="UTF-8" standalone="no"?>
<svg
   xmlns:dc="http://purl.org/dc/elements/1.1/"
   xmlns:cc="http://creativecommons.org/ns#"
   xmlns:rdf="http://www.w3.org/1999/02/22-rdf-syntax-ns#"
   xmlns:svg="http://www.w3.org/2000/svg"
   xmlns="http://www.w3.org/2000/svg"
   viewBox="87.11 175.25 401.78 33.49"
   height="10"
   width="100"
   xml:space="preserve"
   id="svg2"
   version="1.1"><metadata
     id="metadata8"><rdf:RDF><cc:Work
         rdf:about=""><dc:format>image/svg+xml</dc:format><dc:type
           rdf:resource="http://purl.org/dc/dcmitype/StillImage" /></cc:Work></rdf:RDF></metadata><defs
     id="defs6" /><g
     transform="matrix(1.3333333,0,0,-1.3333333,0,384)"
     id="g10"><g
       transform="translate(154.4158,155.8087)"
       id="g12"><path
         id="path14"
         style="fill:#B4B4B4;fill-opacity:1;fill-rule:nonzero;stroke:none"
         d="m 0,0 4.109,-2.372 v -21.996 h 33.75 v 4.906 h -26.49 v 5.709 h 18.404 l -0.005,3.809 H 11.369 v 5.428 h 26.49 v 5.26 H 0.015 Z" /></g><g
       transform="translate(65.3333,155.8087)"
       id="g16"><path
         id="path18"
         style="fill:#B4B4B4;fill-opacity:1;fill-rule:nonzero;stroke:none"
         d="m 0,0 4.142,-2.372 v -21.996 h 7.248 v 8.803 h 17.614 v 4.645 H 11.39 v 6.404 h 25.356 v 5.26 H 0.014 Z" /></g><g
       transform="translate(146.6373,139.4324)"
       id="g20"><path
         id="path22"
         style="fill:#B4B4B4;fill-opacity:1;fill-rule:nonzero;stroke:none"
         d="m 0,0 v 17.127 l -38.67,-0.015 0.013,-0.592 4.043,-2.516 V -7.992 h 7.223 V 11.861 H -6.98 V 4.366 L -22.602,4.346 V 3.536 L -7.777,-7.992 h 9.314 l -9.793,7.969 z" /></g><g
       transform="translate(246.468,155.8087)"
       id="g24"><path
         id="path26"
         style="fill:#B4B4B4;fill-opacity:1;fill-rule:nonzero;stroke:none"
         d="m 0,0 4.142,-2.372 v -21.996 h 7.248 v 8.803 h 17.614 v 4.645 H 11.39 v 6.404 h 25.356 v 5.26 H 0.014 Z" /></g><g
       transform="translate(200.8509,155.8087)"
       id="g28"><path
         id="path30"
         style="fill:#B4B4B4;fill-opacity:1;fill-rule:nonzero;stroke:none"
         d="m 0,0 4.109,-2.372 v -21.996 h 33.75 v 4.906 h -26.49 v 5.709 h 18.404 l -0.005,3.809 H 11.369 v 5.428 h 26.49 v 5.26 H 0.014 Z" /></g><g
       transform="translate(317.5811,136.759)"
       id="g32"><path
         id="path34"
         style="fill:#B4B4B4;fill-opacity:1;fill-rule:nonzero;stroke:none"
         d="m 0,0 h -17.597 v 19.785 h -11.378 l -0.02,-0.592 4.228,-2.515 V -5.319 h 32.15 v 8.32 L 0,3.001 Z" /></g><g
       transform="translate(350.6139,145.3026)"
       id="g36"><path
         id="path38"
         style="fill:#B4B4B4;fill-opacity:1;fill-rule:nonzero;stroke:none"
         d="m 0,0 h -9.906 l -8.303,11.241 h -10.043 l 0.014,-0.591 4.166,-2.516 10.047,-13.479 h 5.11 v -8.517 h 8.022 v 8.517 H 4.22 L 16.053,11.241 H 8.132 Z" /></g></g></svg>