<?xml version="1.0" encoding="utf-8"?>
<!-- Generator: Adobe Illustrator 25.3.1, SVG Export Plug-In . SVG Version: 6.00 Build 0)  -->
<svg version="1.1" id="Layer_1" xmlns="http://www.w3.org/2000/svg" xmlns:xlink="http://www.w3.org/1999/xlink" x="0px" y="0px"
	 viewBox="0 0 432 288" style="enable-background:new 0 0 432 288;" xml:space="preserve">
<style type="text/css">
	.st0{fill:#B4B4B4;}
</style>
<path class="st0" d="M154.03,93.39c11.84,10.2,34.4,59,39.27,59c-14.69-26.07-23.68-49.92-34.79-62.59
	c-2.97-3.38-6.56-5.29-11.3-5.96C113.03,79.04,93.65,73.59,70.54,62c1.59,9.07,32.54,20.33,71.42,26.06
	C149.57,89.18,151.4,91.13,154.03,93.39z"/>
<path class="st0" d="M182.28,143.68c-10.03-17.81-20.04-34.09-27.63-42.75c-2.03-2.31-4.47-3.65-7.72-4.07
	c-23.48-3.02-40.57-7.2-56.36-13.57c2.97,6.19,25.36,12.56,51.52,17.8c5.15,1.03,6.98,2.1,8.77,3.64
	C158.95,111.7,178.95,143.68,182.28,143.68z"/>
<path class="st0" d="M285.72,83.84c-4.75,0.67-8.34,2.58-11.3,5.96c-11.11,12.67-20.1,36.52-34.79,62.59c4.87,0,27.43-48.8,39.27-59
	c2.63-2.27,4.47-4.22,12.07-5.34c38.88-5.73,69.83-16.99,71.42-26.06C339.28,73.59,319.9,79.04,285.72,83.84z"/>
<path class="st0" d="M278.28,100.92c-7.59,8.66-17.6,24.94-27.63,42.75c3.33,0,23.33-31.98,31.41-38.95
	c1.8-1.55,3.63-2.61,8.77-3.64c26.16-5.23,48.55-11.6,51.52-17.8c-15.78,6.37-32.87,10.55-56.36,13.57
	C282.75,97.27,280.31,98.61,278.28,100.92z"/>
<polygon class="st0" points="175.42,205.96 178.19,207.56 178.19,222.34 200.87,222.34 200.87,219.04 183.06,219.04 183.06,215.2 
	195.43,215.2 195.43,212.65 183.06,212.65 183.06,209 200.87,209 200.87,205.46 175.43,205.46 "/>
<polygon class="st0" points="115.55,205.96 118.34,207.56 118.34,222.34 123.21,222.34 123.21,216.42 135.05,216.42 135.05,213.3 
	123.21,213.3 123.21,209 140.25,209 140.25,205.46 115.56,205.46 "/>
<polygon class="st0" points="170.2,216.97 170.2,205.46 144.21,205.47 144.21,205.87 146.93,207.56 146.93,222.34 151.79,222.34 
	151.79,209 165.5,209 165.5,214.03 155.01,214.05 155.01,214.59 164.97,222.34 171.23,222.34 164.65,216.98 "/>
<polygon class="st0" points="237.29,205.96 240.07,207.56 240.07,222.34 244.95,222.34 244.95,216.42 256.78,216.42 256.78,213.3 
	244.95,213.3 244.95,209 261.99,209 261.99,205.46 237.3,205.46 "/>
<polygon class="st0" points="206.63,205.96 209.39,207.56 209.39,222.34 232.08,222.34 232.08,219.04 214.27,219.04 214.27,215.2 
	226.64,215.2 226.64,212.65 214.27,212.65 214.27,209 232.08,209 232.08,205.46 206.64,205.46 "/>
<polygon class="st0" points="285.09,218.76 273.26,218.76 273.26,205.47 265.61,205.47 265.6,205.87 268.44,207.56 268.44,222.34 
	290.05,222.34 290.05,216.75 285.09,216.75 "/>
<polygon class="st0" points="307.29,213.02 300.63,213.02 295.05,205.47 288.3,205.47 288.31,205.87 291.11,207.56 297.86,216.62 
	301.29,216.62 301.29,222.34 306.69,222.34 306.69,216.62 310.12,216.62 318.07,205.47 312.75,205.47 "/>
<path class="st0" d="M204.57,159.55c-10.18-17.24-15.65-29.67-22.1-46.4c-3.04-7.89-6.45-22.68-6.45-30.65
	c0-6.72,0.83-10.23,1.28-12.12c0.15-0.65,0.27-1.16,0.27-1.48c0-0.73-0.75-0.81-1.08-0.81c-1.8,0-5.75,2.41-6.44,9.86
	c-0.84,9.04,2.12,22.31,8.12,36.41C188.17,137.83,200.81,156.11,204.57,159.55z"/>
<path class="st0" d="M228.36,159.55c3.76-3.44,16.39-21.72,26.39-45.19c6-14.1,8.97-27.37,8.12-36.41
	c-0.69-7.45-4.64-9.86-6.44-9.86c-0.32,0-1.08,0.08-1.08,0.81c0,0.31,0.12,0.83,0.28,1.48c0.45,1.89,1.28,5.41,1.28,12.12
	c0,7.97-3.41,22.75-6.45,30.65C244.01,129.88,238.54,142.31,228.36,159.55z"/>
<path class="st0" d="M216.55,170.22c1.27,1.76,2.52,3.44,3.74,5.01c11.38,14.65,19.88,18.33,23.2,15.62
	c4-3.26,1.48-15.49-3.98-26.67c-0.91-1.86-1.08-1.78-0.57,0.15c3.11,11.88,4.61,22.3,2.56,23.85c-2.44,1.84-11.17-4.69-22.01-22.15
	c6.63-9.7,13.53-21.57,19.18-34.49c11.46-26.23,17.05-62.44,5.15-76.7c-0.44-0.52-0.54-0.46-0.44,0.13
	c4.18,24.11-4.4,56-10.93,72.54c-5.4,13.66-10.83,24.77-15.9,33.58c-5.07-8.82-10.5-19.92-15.9-33.58
	c-6.54-16.54-15.11-48.43-10.93-72.54c0.1-0.59,0-0.66-0.44-0.13c-11.9,14.26-6.31,50.46,5.15,76.7
	c5.64,12.92,12.54,24.79,19.18,34.49c-10.84,17.47-19.57,23.99-22.01,22.15c-2.06-1.55-0.55-11.97,2.56-23.85
	c0.51-1.93,0.33-2.01-0.57-0.15c-5.46,11.18-7.97,23.41-3.98,26.67c3.32,2.71,11.82-0.96,23.2-15.62
	C214.02,173.66,215.28,171.98,216.55,170.22z"/>
</svg>
