<?xml version="1.0" encoding="UTF-8" standalone="no"?>
<!-- Generator: Adobe Illustrator 19.0.0, SVG Export Plug-In . SVG Version: 6.00 Build 0)  -->

<svg
   xmlns:dc="http://purl.org/dc/elements/1.1/"
   xmlns:cc="http://creativecommons.org/ns#"
   xmlns:rdf="http://www.w3.org/1999/02/22-rdf-syntax-ns#"
   xmlns:svg="http://www.w3.org/2000/svg"
   xmlns="http://www.w3.org/2000/svg"
   xmlns:sodipodi="http://sodipodi.sourceforge.net/DTD/sodipodi-0.dtd"
   xmlns:inkscape="http://www.inkscape.org/namespaces/inkscape"
   version="1.1"
   id="Layer_1"
   x="0px"
   y="0px"
   viewBox="0 0 15.000002 15"
   xml:space="preserve"
   sodipodi:docname="icon_altitude.svg"
   width="15.000002"
   height="15"
   inkscape:version="0.92.5 (2060ec1f9f, 2020-04-08)"><metadata
   id="metadata196"><rdf:RDF><cc:Work
       rdf:about=""><dc:format>image/svg+xml</dc:format><dc:type
         rdf:resource="http://purl.org/dc/dcmitype/StillImage" /><dc:title></dc:title></cc:Work></rdf:RDF></metadata><defs
   id="defs194" /><sodipodi:namedview
   pagecolor="#ffffff"
   bordercolor="#666666"
   borderopacity="1"
   objecttolerance="10"
   gridtolerance="10"
   guidetolerance="10"
   inkscape:pageopacity="0"
   inkscape:pageshadow="2"
   inkscape:window-width="1848"
   inkscape:window-height="1136"
   id="namedview192"
   showgrid="false"
   inkscape:zoom="4.0455079"
   inkscape:cx="-51.253595"
   inkscape:cy="33.537844"
   inkscape:window-x="355"
   inkscape:window-y="1467"
   inkscape:window-maximized="1"
   inkscape:current-layer="Layer_1" />
<g
   id="XMLID_333_"
   transform="matrix(0.0454546,0,0,0.075,-9.10837e-6,-9.75)">
	
	<path
   id="XMLID_337_"
   d="M 237.055,330 H 315 c 5.438,0 10.451,-2.944 13.1,-7.694 2.649,-4.75 2.52,-10.562 -0.338,-15.189 l -105,-170 C 220.03,132.693 215.2,130 210,130 c -5.201,0 -10.029,2.693 -12.763,7.118 l -39.513,63.974 75.26,122.297 z"
   inkscape:connector-curvature="0" />
	<path
   id="XMLID_338_"
   d="M 201.828,330 107.565,176.822 C 104.804,172.577 100.082,170 95,170 c -5.209,0 -10.045,2.702 -12.775,7.139 l -80,130 c -2.848,4.628 -2.97,10.435 -0.318,15.178 C 4.557,327.061 9.567,330 15,330 h 160 c 0.006,0 0.014,0 0.02,0 z"
   inkscape:connector-curvature="0" />
</g>
<g
   id="g161"
   transform="matrix(0.03636368,0,0,0.07499992,-0.60110433,-10.615139)">
</g>
<g
   id="g163"
   transform="matrix(0.03636368,0,0,0.07499992,-0.60110433,-10.615139)">
</g>
<g
   id="g165"
   transform="matrix(0.03636368,0,0,0.07499992,-0.60110433,-10.615139)">
</g>
<g
   id="g167"
   transform="matrix(0.03636368,0,0,0.07499992,-0.60110433,-10.615139)">
</g>
<g
   id="g169"
   transform="matrix(0.03636368,0,0,0.07499992,-0.60110433,-10.615139)">
</g>
<g
   id="g171"
   transform="matrix(0.03636368,0,0,0.07499992,-0.60110433,-10.615139)">
</g>
<g
   id="g173"
   transform="matrix(0.03636368,0,0,0.07499992,-0.60110433,-10.615139)">
</g>
<g
   id="g175"
   transform="matrix(0.03636368,0,0,0.07499992,-0.60110433,-10.615139)">
</g>
<g
   id="g177"
   transform="matrix(0.03636368,0,0,0.07499992,-0.60110433,-10.615139)">
</g>
<g
   id="g179"
   transform="matrix(0.03636368,0,0,0.07499992,-0.60110433,-10.615139)">
</g>
<g
   id="g181"
   transform="matrix(0.03636368,0,0,0.07499992,-0.60110433,-10.615139)">
</g>
<g
   id="g183"
   transform="matrix(0.03636368,0,0,0.07499992,-0.60110433,-10.615139)">
</g>
<g
   id="g185"
   transform="matrix(0.03636368,0,0,0.07499992,-0.60110433,-10.615139)">
</g>
<g
   id="g187"
   transform="matrix(0.03636368,0,0,0.07499992,-0.60110433,-10.615139)">
</g>
<g
   id="g189"
   transform="matrix(0.03636368,0,0,0.07499992,-0.60110433,-10.615139)">
</g>
</svg>