<?xml version="1.0" encoding="UTF-8" standalone="no"?>
<svg
   xmlns:dc="http://purl.org/dc/elements/1.1/"
   xmlns:cc="http://creativecommons.org/ns#"
   xmlns:rdf="http://www.w3.org/1999/02/22-rdf-syntax-ns#"
   xmlns:svg="http://www.w3.org/2000/svg"
   xmlns="http://www.w3.org/2000/svg"
   xmlns:sodipodi="http://sodipodi.sourceforge.net/DTD/sodipodi-0.dtd"
   xmlns:inkscape="http://www.inkscape.org/namespaces/inkscape"
   width="24px"
   height="24px"
   viewBox="0 0 24 24"
   version="1.1"
   id="svg838"
   sodipodi:docname="icon_ease_orig.svg"
   fill="none"
   inkscape:version="0.92.5 (2060ec1f9f, 2020-04-08)">
  <metadata
     id="metadata844">
    <rdf:RDF>
      <cc:Work
         rdf:about="">
        <dc:format>image/svg+xml</dc:format>
        <dc:type
           rdf:resource="http://purl.org/dc/dcmitype/StillImage" />
        <dc:title></dc:title>
      </cc:Work>
    </rdf:RDF>
  </metadata>
  <defs
     id="defs842" />
  <sodipodi:namedview
     pagecolor="#ffffff"
     bordercolor="#666666"
     borderopacity="1"
     objecttolerance="10"
     gridtolerance="10"
     guidetolerance="10"
     inkscape:pageopacity="0"
     inkscape:pageshadow="2"
     inkscape:window-width="1848"
     inkscape:window-height="1136"
     id="namedview840"
     showgrid="false"
     inkscape:zoom="19.666667"
     inkscape:cx="12.142959"
     inkscape:cy="8.6182806"
     inkscape:window-x="355"
     inkscape:window-y="1467"
     inkscape:window-maximized="1"
     inkscape:current-layer="svg838" />
  <path
     d="M17 20C17 21.1046 17.8954 22 19 22C20.1046 22 21 21.1046 21 20C21 18.8954 20.1046 18 19 18C17.8954 18 17 18.8954 17 20ZM17 20H15"
     stroke="currentColor"
     stroke-width="1.5"
     stroke-linecap="round"
     stroke-linejoin="round"
     id="path828" />
  <path
     d="M7 4C7 5.10457 6.10457 6 5 6C3.89543 6 3 5.10457 3 4C3 2.89543 3.89543 2 5 2C6.10457 2 7 2.89543 7 4ZM7 4L9 4"
     id="path830"
     stroke-linejoin="round"
     stroke-linecap="round"
     stroke-width="1.5"
     stroke="currentColor" />
  <path
     d="M14 4L12 4"
     id="path832"
     stroke-linejoin="round"
     stroke-linecap="round"
     stroke-width="1.5"
     stroke="currentColor" />
  <path
     d="M12 20H10"
     stroke="currentColor"
     stroke-width="1.5"
     stroke-linecap="round"
     stroke-linejoin="round"
     id="path834" />
  <path
     d="M3 20C11 20 13 4 21 4"
     id="path836"
     stroke-linejoin="round"
     stroke-linecap="round"
     stroke-width="1.5"
     stroke="currentColor" />
</svg>
