<?xml version="1.0" encoding="UTF-8" standalone="no"?>
<!-- Generator: Adobe Illustrator 19.0.0, SVG Export Plug-In . SVG Version: 6.00 Build 0)  -->

<svg
   xmlns:dc="http://purl.org/dc/elements/1.1/"
   xmlns:cc="http://creativecommons.org/ns#"
   xmlns:rdf="http://www.w3.org/1999/02/22-rdf-syntax-ns#"
   xmlns:svg="http://www.w3.org/2000/svg"
   xmlns="http://www.w3.org/2000/svg"
   xmlns:sodipodi="http://sodipodi.sourceforge.net/DTD/sodipodi-0.dtd"
   xmlns:inkscape="http://www.inkscape.org/namespaces/inkscape"
   version="1.1"
   id="Capa_1"
   x="0px"
   y="0px"
   viewBox="0 0 15.042674 15.000002"
   xml:space="preserve"
   sodipodi:docname="icon_refresh.svg"
   width="15.042674"
   height="15.000002"
   inkscape:version="0.92.5 (2060ec1f9f, 2020-04-08)"><metadata
   id="metadata41"><rdf:RDF><cc:Work
       rdf:about=""><dc:format>image/svg+xml</dc:format><dc:type
         rdf:resource="http://purl.org/dc/dcmitype/StillImage" /><dc:title></dc:title></cc:Work></rdf:RDF></metadata><defs
   id="defs39" /><sodipodi:namedview
   pagecolor="#ffffff"
   bordercolor="#666666"
   borderopacity="1"
   objecttolerance="10"
   gridtolerance="10"
   guidetolerance="10"
   inkscape:pageopacity="0"
   inkscape:pageshadow="2"
   inkscape:window-width="1848"
   inkscape:window-height="1136"
   id="namedview37"
   showgrid="false"
   inkscape:zoom="0.48198185"
   inkscape:cx="9.5957955"
   inkscape:cy="-2.8738857"
   inkscape:window-x="355"
   inkscape:window-y="1467"
   inkscape:window-maximized="1"
   inkscape:current-layer="g4" />
<g
   id="g4"
   transform="translate(-237.30147,-237.32244)">
	<path
   d="m 238.19206,248.26054 c 1.80336,3.75111 6.51912,5.11515 10.19343,3.19812 0.28878,-0.15975 0.41474,-0.50998 0.25499,-0.82949 -0.15976,-0.28878 -0.50998,-0.41474 -0.82949,-0.25498 -3.06909,1.59752 -6.98609,0.45775 -8.50067,-2.65128 -2.00919,-4.12591 0.58372,-7.2718 2.68507,-8.43615 2.86018,-1.58831 6.48841,-0.53456 8.2211,2.17202 l -2.129,-0.44547 c -0.31951,-0.0645 -0.66973,0.12903 -0.73425,0.47926 -0.0645,0.3195 0.12903,0.66973 0.47926,0.73425 l 3.77261,0.76804 c 0.63287,0.0614 0.76804,-0.50998 0.73425,-0.70353 L 251.8601,238.488 c -0.0307,-0.31951 -0.28878,-0.54378 -0.60829,-0.54378 -0.39323,0 -0.63901,0.38402 -0.60829,0.73425 l 0.18433,1.55144 c -1.76342,-2.17509 -5.23189,-4.03067 -9.44382,-2.09521 -1.78492,0.92165 -5.88318,4.53758 -3.19197,10.12584 z"
   id="path2"
   inkscape:connector-curvature="0"
   style="stroke-width:0.0307216" />
</g>
<g
   id="g6"
   transform="translate(-237.30147,-237.32244)">
</g>
<g
   id="g8"
   transform="translate(-237.30147,-237.32244)">
</g>
<g
   id="g10"
   transform="translate(-237.30147,-237.32244)">
</g>
<g
   id="g12"
   transform="translate(-237.30147,-237.32244)">
</g>
<g
   id="g14"
   transform="translate(-237.30147,-237.32244)">
</g>
<g
   id="g16"
   transform="translate(-237.30147,-237.32244)">
</g>
<g
   id="g18"
   transform="translate(-237.30147,-237.32244)">
</g>
<g
   id="g20"
   transform="translate(-237.30147,-237.32244)">
</g>
<g
   id="g22"
   transform="translate(-237.30147,-237.32244)">
</g>
<g
   id="g24"
   transform="translate(-237.30147,-237.32244)">
</g>
<g
   id="g26"
   transform="translate(-237.30147,-237.32244)">
</g>
<g
   id="g28"
   transform="translate(-237.30147,-237.32244)">
</g>
<g
   id="g30"
   transform="translate(-237.30147,-237.32244)">
</g>
<g
   id="g32"
   transform="translate(-237.30147,-237.32244)">
</g>
<g
   id="g34"
   transform="translate(-237.30147,-237.32244)">
</g>
</svg>