<?xml version="1.0" encoding="iso-8859-1"?>
<!-- Generator: Adobe Illustrator 19.0.0, SVG Export Plug-In . SVG Version: 6.00 Build 0)  -->
<svg version="1.1" id="Layer_1" xmlns="http://www.w3.org/2000/svg" xmlns:xlink="http://www.w3.org/1999/xlink" x="0px" y="0px"
	 viewBox="0 0 508 508" style="enable-background:new 0 0 508 508;" xml:space="preserve" height="25" width="25">
<g>
	<g>
		<path d="M432.4,127.2c0-2-1.6-4-4-4H79.6c-2,0-4,1.6-4,4v254c0,2,1.6,4,4,4h349.2c2,0,4-1.6,4-4v-254H432.4z M385.2,337.6h-262
			v-0.4V170.8h262V337.6z"/>
	</g>
</g>
<g>
	<g>
		<path d="M428.4,47.6c-4.4,0-8,3.6-8,8v51.6c0,4.4,3.6,8,8,8c4.4,0,8-3.6,8-8V55.6C436.4,51.2,432.8,47.6,428.4,47.6z"/>
	</g>
</g>
<g>
	<g>
		<path d="M79.6,47.6c-4.4,0-8,3.6-8,8v51.6c0,4.4,3.6,8,8,8c4.4,0,8-3.6,8-8V55.6C87.6,51.2,84,47.6,79.6,47.6z"/>
	</g>
</g>
<g>
	<g>
		<path d="M428.4,392.8c-4.4,0-8,3.6-8,8v51.6c0,4.4,3.6,8,8,8c4.4,0,8-3.6,8-8v-51.6C436.4,396.4,432.8,392.8,428.4,392.8z"/>
	</g>
</g>
<g>
	<g>
		<path d="M500,373.2h-52c-4.4,0-8,3.6-8,8c0,4.4,3.6,8,8,8h52c4.4,0,8-3.6,8-8C508,376.4,504.4,373.2,500,373.2z"/>
	</g>
</g>
<g>
	<g>
		<path d="M59.6,373.2H8c-4.4,0-8,3.6-8,8c0,4.4,3.6,8,8,8h51.6c4.4,0,8-3.6,8-8C67.2,376.4,64,373.2,59.6,373.2z"/>
	</g>
</g>
<g>
	<g>
		<path d="M500,118.8h-52c-4.4,0-8,3.6-8,8c0,4.8,3.6,8,8,8h52c4.4,0,8-3.6,8-8C508,122.4,504.4,118.8,500,118.8z"/>
	</g>
</g>
<g>
	<g>
		<path d="M59.6,119.2H8c-4.4,0-8,3.6-8,8c0,4.4,3.6,8,8,8h51.6c4.4,0,8-3.6,8-8C67.2,122.8,64,119.2,59.6,119.2z"/>
	</g>
</g>
<g>
	<g>
		<path d="M79.6,392.8c-4.4,0-8,3.6-8,8v51.6c0,4.4,3.6,8,8,8c4.4,0,8-3.6,8-8v-51.6C87.2,396.4,84,392.8,79.6,392.8z"/>
	</g>
</g>
<g>
</g>
<g>
</g>
<g>
</g>
<g>
</g>
<g>
</g>
<g>
</g>
<g>
</g>
<g>
</g>
<g>
</g>
<g>
</g>
<g>
</g>
<g>
</g>
<g>
</g>
<g>
</g>
<g>
</g>
</svg>
